<svg width="74px" height="62px" viewBox="0 0 74 62" version="1.1" xmlns="http://www.w3.org/2000/svg" fill="currentColor">
  <g id="Site-(1200)" stroke="none" stroke-width="1" fill="none" fill-rule="evenodd">
    <g id="How-it's-clean" transform="translate(-371.000000, -660.000000)" fill-rule="nonzero" fill="currentColor">
      <g id="Manual" transform="translate(371.000000, 660.000000)">
        <g id="1" transform="translate(0.000000, 0.391904)">
          <g id="livingroom-2">
            <path d="M59.095,37.483 C58.699,36.998 58.202,36.625 57.65,36.372 C57.322,31.153 52.983,27.003 47.682,27.003 L34.243,27.003 C32.791,27.003 31.337,27.312 30.007,27.899 C28.677,27.312 27.223,27.003 25.771,27.003 L13.055,27.003 C7.84,27.003 3.55,31.018 3.1,36.118 C2.206,36.333 1.41,36.844 0.836,37.597 C0.064,38.611 -0.185,39.897 0.137,41.059 L2.446,52.441 L2.485,52.578 C3.003,54.029 4.385,55.004 5.926,55.004 L6.006,55.004 L6.006,61.004 L10.727,61.004 L12.727,55.004 L48.285,55.004 L50.285,61.004 L55.006,61.004 L55.006,54.977 C56.491,54.841 57.777,53.808 58.193,52.354 L59.925,40.835 C60.167,39.644 59.864,38.422 59.095,37.483 Z M47.682,29.003 C51.758,29.003 55.133,32.067 55.621,36.015 C55.491,36.023 55.37,36.057 55.242,36.074 C55.079,36.096 54.916,36.114 54.757,36.15 C54.576,36.191 54.403,36.249 54.229,36.307 C54.079,36.357 53.927,36.402 53.782,36.464 C53.608,36.539 53.446,36.631 53.282,36.722 C53.151,36.795 53.018,36.86 52.893,36.943 C52.726,37.054 52.574,37.183 52.42,37.31 C52.316,37.397 52.206,37.475 52.108,37.569 C51.947,37.723 51.806,37.894 51.664,38.066 C51.592,38.154 51.511,38.233 51.444,38.325 C51.291,38.535 51.162,38.762 51.039,38.992 C51.002,39.061 50.955,39.124 50.92,39.195 C50.779,39.488 50.665,39.795 50.575,40.114 C50.57,40.132 50.561,40.148 50.556,40.166 C50.465,40.504 50.403,40.854 50.377,41.215 L50.106,45.003 L31.007,45.003 L31.007,29.661 C32.032,29.238 33.136,29.003 34.243,29.003 L47.682,29.003 Z M13.055,29.003 L25.77,29.003 C26.877,29.003 27.981,29.237 29.006,29.661 L29.006,45.003 L10.209,45.003 L9.611,40.821 C9.565,40.498 9.486,40.186 9.387,39.883 C9.354,39.784 9.309,39.691 9.271,39.594 C9.194,39.396 9.113,39.201 9.015,39.015 C8.958,38.907 8.893,38.807 8.829,38.704 C8.728,38.54 8.624,38.381 8.507,38.229 C8.431,38.129 8.35,38.034 8.267,37.94 C8.143,37.799 8.014,37.666 7.877,37.538 C7.786,37.453 7.695,37.369 7.598,37.289 C7.449,37.167 7.293,37.058 7.133,36.951 C7.034,36.885 6.939,36.817 6.836,36.757 C6.651,36.65 6.456,36.561 6.258,36.476 C6.169,36.437 6.084,36.39 5.993,36.356 C5.706,36.249 5.41,36.162 5.104,36.103 C5.554,32.115 8.948,29.003 13.055,29.003 Z M5.926,53.003 C5.249,53.003 4.64,52.588 4.39,51.964 L2.081,40.594 C1.91,39.973 2.036,39.322 2.427,38.81 C2.818,38.297 3.41,38.003 4.055,38.003 C5.84,38.003 7.376,39.335 7.63,41.102 L8.939,53.003 L6.007,53.003 L5.926,53.003 Z M9.286,59.003 L8.007,59.003 L8.007,55.003 L9.14,55.003 L10.619,55.003 L9.286,59.003 Z M13.394,53.003 L10.97,53.003 L10.434,47.003 L49.993,47.003 L49.726,53.003 L47.619,53.003 L13.394,53.003 Z M53.007,59.003 L51.728,59.003 L50.395,55.003 L51.639,55.003 L53.007,55.003 L53.007,59.003 Z M57.956,40.487 L56.254,51.858 C56.034,52.535 55.396,53.004 54.68,53.004 L51.739,53.004 L52.374,41.358 C52.509,39.477 54.092,38.004 55.978,38.004 C56.589,38.004 57.162,38.275 57.549,38.749 C57.934,39.222 58.087,39.837 57.956,40.487 Z" id="Shape"></path>
            <path d="M14.3,40.71 C14.495,40.905 14.751,41.003 15.007,41.003 C15.263,41.003 15.519,40.905 15.714,40.71 L16.634,39.79 C17.067,40.003 17.535,40.123 18.007,40.123 C18.479,40.123 18.947,40.003 19.38,39.79 L20.3,40.71 C20.495,40.905 20.751,41.003 21.007,41.003 C21.263,41.003 21.519,40.905 21.714,40.71 C22.105,40.319 22.105,39.687 21.714,39.296 L20.794,38.376 C21.219,37.51 21.219,36.496 20.794,35.629 L21.714,34.709 C22.105,34.318 22.105,33.686 21.714,33.295 C21.323,32.904 20.691,32.904 20.3,33.295 L19.38,34.215 C18.514,33.79 17.5,33.79 16.633,34.215 L15.713,33.295 C15.322,32.904 14.69,32.904 14.299,33.295 C13.908,33.686 13.908,34.318 14.299,34.709 L15.219,35.629 C14.794,36.495 14.794,37.509 15.219,38.376 L14.299,39.296 C13.909,39.687 13.909,40.32 14.3,40.71 Z M18.8,36.21 C19.238,36.648 19.238,37.358 18.8,37.796 C18.362,38.234 17.652,38.234 17.214,37.796 C16.776,37.358 16.776,36.648 17.214,36.21 C17.433,35.991 17.72,35.882 18.007,35.882 C18.294,35.882 18.581,35.992 18.8,36.21 Z" id="Shape"></path>
            <path d="M38.3,40.71 C38.495,40.905 38.751,41.003 39.007,41.003 C39.263,41.003 39.519,40.905 39.714,40.71 L40.634,39.79 C41.067,40.003 41.535,40.123 42.007,40.123 C42.479,40.123 42.947,40.003 43.38,39.79 L44.3,40.71 C44.495,40.905 44.751,41.003 45.007,41.003 C45.263,41.003 45.519,40.905 45.714,40.71 C46.105,40.319 46.105,39.687 45.714,39.296 L44.794,38.376 C45.219,37.51 45.219,36.496 44.794,35.629 L45.714,34.709 C46.105,34.318 46.105,33.686 45.714,33.295 C45.323,32.904 44.691,32.904 44.3,33.295 L43.38,34.215 C42.514,33.79 41.5,33.79 40.633,34.215 L39.713,33.295 C39.322,32.904 38.69,32.904 38.299,33.295 C37.908,33.686 37.908,34.318 38.299,34.709 L39.219,35.629 C38.794,36.495 38.794,37.509 39.219,38.376 L38.299,39.296 C37.909,39.687 37.909,40.32 38.3,40.71 Z M42.8,36.21 C43.238,36.648 43.238,37.358 42.8,37.796 C42.362,38.234 41.652,38.234 41.214,37.796 C40.776,37.358 40.776,36.648 41.214,36.21 C41.433,35.991 41.72,35.882 42.007,35.882 C42.294,35.882 42.581,35.992 42.8,36.21 Z" id="Shape"></path>
            <path d="M65.949,12 L65.437,12 C62.954,12 61.798,13.683 61.196,16.093 L60.7425882,17.2931896 L60.7425882,17.2931896 C60.3522276,18.3264815 60.8734265,19.48058 61.9067185,19.8709407 C62.1325995,19.9562748 62.3720664,20 62.6135289,20 L71.3857782,20 L71.3857782,20 C72.4903477,20 73.3857782,19.1045695 73.3857782,18 C73.3857782,17.758387 73.3419985,17.5187733 73.2565606,17.2927705 L72.803,16.093 C72.201,13.683 71.046,12 68.563,12 L67.95,12 C67.436,5.299 65.83,0 59,0 L58,0 C48.075,0 47,8.075 47,18 L47,54 L42,54 L42,60 L54,60 L54,54 L49,54 L49,18 C49,9.178 49.178,2 58,2 L59,2 C64.728,2 65.442,6.402 65.949,12 Z M70.864,16.577 L70.864,16.577 L70.864,16.577 C71.1313153,17.0213804 70.9877756,17.5983237 70.5433952,17.865639 C70.397252,17.9535508 70.2299252,18 70.0593781,18 L63.9401066,18 L63.9401066,18 C63.4213693,18 63.0008495,17.5794803 63.0008495,17.0607429 C63.0008495,16.8903106 63.0472227,16.7230901 63.135,16.577 L63.135,16.577 C63.516,15.06 63.873,14 65.438,14 L68.563,14 C70.127,14 70.484,15.06 70.864,16.577 Z M52,56 L52,58 L44,58 L44,56 L52,56 Z" id="Shape" transform="translate(57.692889, 30.000000) scale(-1, 1) translate(-57.692889, -30.000000) "></path>
          </g>
        </g>
      </g>
    </g>
  </g>
</svg>
