<svg width="65px" height="61px" viewBox="0 0 65 61" version="1.1" xmlns="http://www.w3.org/2000/svg" fill="currentColor">
  <g id="Site-(1200)" stroke="none" stroke-width="1" fill="none" fill-rule="evenodd">
    <g id="How-it's-clean" transform="translate(-980.000000, -662.000000)" fill-rule="nonzero" fill="currentColor">
      <g id="Manual" transform="translate(371.000000, 660.000000)">
        <g id="2" transform="translate(609.000000, 2.000000)">
          <g id="bathtub">
            <path d="M61.75,32.6780063 L60.666709,32.6780063 L60.666709,9.80938703 C60.666709,4.36443515 56.333418,0.00855020921 50.916709,0.00855020921 C46.1216895,0.00855020921 42.6730078,3.58253766 42.2871973,8.81922176 C39.7698437,9.29752301 37.916709,11.4769331 37.916709,14.165272 C37.916709,14.8186611 38.35,15.2542113 39,15.2542113 L47.666709,15.2542113 C48.316709,15.2542113 48.75,14.8186611 48.75,14.165272 C48.75,11.5066674 46.9378711,9.34537866 44.4631738,8.83517364 C44.7869043,5.3747636 46.8544629,2.18642887 50.916709,2.18642887 C55.141709,2.18642887 58.5,5.56223013 58.5,9.80925941 L58.5,32.6778787 L25.8952637,32.6778787 C25.4052246,30.1662866 23.2447363,28.3219937 20.583418,28.3219937 C19.500127,27.0152155 17.983418,26.1439874 16.250127,26.1439874 C14.1918359,26.1439874 12.350127,27.34191 11.483418,29.0842385 C10.616709,28.6486883 9.64170898,28.3219937 8.66670898,28.3219937 C6.00539062,28.3219937 3.84490234,30.1662866 3.35486328,32.6778787 L3.25,32.6778787 C1.40829102,32.6778787 0,34.0935126 0,35.9448243 C0,37.796136 1.40829102,39.2117699 3.25,39.2117699 L4.5519043,39.2117699 L7.475,50.8639184 C8.34170898,54.2397197 11.375,56.6355649 14.841709,56.6355649 L15.708418,56.6355649 L14.300127,59.4669603 C13.975127,60.0114937 14.1918359,60.6648828 14.733418,60.8825941 C14.841709,60.9914498 15.058418,60.9914498 15.166709,60.9914498 C15.6,60.9914498 15.925,60.7736109 16.141709,60.4469163 L18.0375,56.6355649 L48.1,56.6355649 L49.941709,60.3380607 C50.158418,60.7736109 50.483418,60.9914498 50.916709,60.9914498 C51.133418,60.9914498 51.241709,60.9914498 51.35,60.7736109 C51.783291,60.555772 52,59.9023828 51.783291,59.357977 L50.4262891,56.6296946 C53.7802637,56.5099916 56.6807617,54.1552385 57.525,50.9727741 L60.4753906,39.2117699 L61.75,39.2117699 C63.591709,39.2117699 65,37.796136 65,35.9448243 C65,34.0936402 63.591709,32.6780063 61.75,32.6780063 Z M46.475,13.0763326 L40.3,13.0763326 C40.733291,11.7695544 42.033291,10.8983264 43.441709,10.8983264 C44.850127,10.8983264 46.041709,11.7695544 46.475,13.0763326 Z M8.66670898,30.5 C9.64170898,30.5 10.508418,30.9355502 11.266709,31.6979226 C11.483418,32.0246172 11.916709,32.1334728 12.35,32.0246172 C12.783291,31.9157615 13,31.5890669 13.108291,31.1533891 C13.433291,29.5199163 14.733291,28.3219937 16.358291,28.3219937 C17.55,28.3219937 18.633291,28.8665272 19.175,29.9554665 C19.391709,30.3910167 19.933291,30.6088556 20.366709,30.5 C20.475,30.5 20.583418,30.5 20.691709,30.5 C22.1,30.5 23.291709,31.371228 23.725,32.6780063 L5.63329102,32.6780063 C6.06670898,31.371228 7.25829102,30.5 8.66670898,30.5 Z M55.575,50.3195126 C54.925,52.7152301 52.758291,54.4576862 50.266709,54.4576862 L14.95,54.4576862 C12.458291,54.4576862 10.291709,52.7153577 9.64170898,50.3195126 L6.825,39.2118975 L58.175,39.2118975 L55.575,50.3195126 Z M61.75,37.0338912 L59.583291,37.0338912 L5.41670898,37.0338912 L3.25,37.0338912 C2.6,37.0338912 2.16670898,36.598341 2.16670898,35.9449519 C2.16670898,35.2915628 2.6,34.8560126 3.25,34.8560126 L4.33329102,34.8560126 L24.916582,34.8560126 L61.75,34.8560126 C62.4,34.8560126 62.833291,35.2915628 62.833291,35.9449519 C62.833291,36.598341 62.4,37.0338912 61.75,37.0338912 Z" id="Shape"></path>
            <path d="M39,20.1546297 C39.65,20.1546297 40.083291,19.7190795 40.083291,19.0656904 L40.083291,18.5211569 C40.083291,17.8677678 39.65,17.4322176 39,17.4322176 C38.35,17.4322176 37.916709,17.8677678 37.916709,18.5211569 L37.916709,19.0656904 C37.916709,19.7190795 38.35,20.1546297 39,20.1546297 Z" id="Shape"></path>
            <path d="M39,25.1640314 C39.65,25.1640314 40.083291,24.6194979 40.083291,24.0750921 L40.083291,22.8771695 C40.083291,22.2237803 39.65,21.7882301 39,21.7882301 C38.35,21.7882301 37.916709,22.2237803 37.916709,22.8771695 L37.916709,24.0750921 C37.916709,24.7283536 38.35,25.1640314 39,25.1640314 Z" id="Shape"></path>
            <path d="M39,29.4110607 C39.65,29.4110607 40.083291,28.9755105 40.083291,28.3221213 L40.083291,27.7775879 C40.083291,27.1241987 39.65,26.6886485 39,26.6886485 C38.35,26.6886485 37.916709,27.1241987 37.916709,27.7775879 L37.916709,28.3221213 C37.916709,28.9753828 38.35,29.4110607 39,29.4110607 Z" id="Shape"></path>
            <path d="M43.333291,20.1546297 C43.983291,20.1546297 44.416582,19.7190795 44.416582,19.0656904 L44.416582,18.5211569 C44.416582,17.8677678 43.983291,17.4322176 43.333291,17.4322176 C42.683291,17.4322176 42.25,17.8677678 42.25,18.5211569 L42.25,19.0656904 C42.25,19.7190795 42.683291,20.1546297 43.333291,20.1546297 Z" id="Shape"></path>
            <path d="M42.25,24.0749644 C42.25,24.7283536 42.683291,25.1639038 43.333291,25.1639038 C43.983291,25.1639038 44.416582,24.6193703 44.416582,24.0749644 L44.416582,22.8770418 C44.416582,22.2236527 43.983291,21.7881025 43.333291,21.7881025 C42.683291,21.7881025 42.25,22.2236527 42.25,22.8770418 L42.25,24.0749644 Z" id="Shape"></path>
            <path d="M42.25,28.3219937 C42.25,28.9753828 42.683291,29.4109331 43.333291,29.4109331 C43.983291,29.4109331 44.416582,28.9753828 44.416582,28.3219937 L44.416582,27.7774603 C44.416582,27.1240711 43.983291,26.6885209 43.333291,26.6885209 C42.683291,26.6885209 42.25,27.1240711 42.25,27.7774603 L42.25,28.3219937 Z" id="Shape"></path>
            <path d="M47.666709,20.1546297 C48.316709,20.1546297 48.75,19.7190795 48.75,19.0656904 L48.75,18.5211569 C48.75,17.8677678 48.316709,17.4322176 47.666709,17.4322176 C47.016709,17.4322176 46.583418,17.8677678 46.583418,18.5211569 L46.583418,19.0656904 C46.583291,19.7190795 47.016709,20.1546297 47.666709,20.1546297 Z" id="Shape"></path>
            <path d="M46.583291,24.0749644 C46.583291,24.7283536 47.016582,25.1639038 47.666582,25.1639038 C48.316582,25.1639038 48.75,24.6194979 48.75,24.0749644 L48.75,22.8770418 C48.75,22.2236527 48.316709,21.7881025 47.666709,21.7881025 C47.016709,21.7881025 46.583418,22.2236527 46.583418,22.8770418 L46.583418,24.0749644 L46.583291,24.0749644 Z" id="Shape"></path>
            <path d="M46.583291,28.3219937 C46.583291,28.9753828 47.016582,29.4109331 47.666582,29.4109331 C48.316582,29.4109331 48.749873,28.9753828 48.749873,28.3219937 L48.749873,27.7774603 C48.749873,27.1240711 48.316582,26.6885209 47.666582,26.6885209 C47.016582,26.6885209 46.583291,27.1240711 46.583291,27.7774603 L46.583291,28.3219937 Z" id="Shape"></path>
          </g>
        </g>
      </g>
    </g>
  </g>
</svg>
