<svg width="79px" height="80px" viewBox="0 0 79 80" version="1.1" xmlns="http://www.w3.org/2000/svg">
  <g id="Site-(1200)" stroke="none" stroke-width="1" fill="none" fill-rule="evenodd">
    <path
      d="M58.8039249,63.118285 C58.396603,62.5709615 57.6241575,62.4613507 57.0823756,62.8711642 C56.53813,63.2797393 56.427538,64.0536957 56.8360894,64.5985471 L60.7729948,69.8651335 C61.0059955,70.1773058 61.3712458,70.359375 61.7569149,70.359375 C61.7773335,70.359375 61.7989865,70.359375 61.8205173,70.3581412 C62.2290687,70.336415 62.6014523,70.1122541 62.8116926,69.7602079 L68.7164383,59.8852079 C69.0660615,59.3006097 68.8774693,58.5424559 68.2947235,58.1916481 C67.7108654,57.8396019 66.9563794,58.0300668 66.6068783,58.6146648 L61.6427518,66.9154675 L58.8039249,63.118285 L58.8039249,63.118285 Z"
      id="Shape" fill="#FFE16C"></path>
    <path
      d="M73.8126925,7.4109405 L55.3595968,7.4109405 L55.3595968,1.234375 C55.3595968,0.552135938 54.8093255,0 54.1293904,0 C53.4493287,0 52.8991841,0.552135938 52.8991841,1.234375 L52.8991841,7.4109405 L27.0648478,7.4109405 L27.0648478,1.234375 C27.0648478,0.552135938 26.5145765,0 25.8346414,0 C25.1545843,0 24.604435,0.552135938 24.604435,1.234375 L24.604435,7.4109405 L4.92051784,7.4109405 C2.20274603,7.4109405 -0.000307674616,9.62145938 -0.000307674616,12.3484411 L-0.000307674616,74.0625 C-0.000307674616,76.7893563 2.20274591,79 4.92051784,79 L73.8126945,79 C76.5303419,79 78.73352,76.7893563 78.73352,74.0625 L78.73352,12.3484411 C78.733518,9.62145938 76.5303399,7.4109405 73.8126925,7.4109405 L73.8126925,7.4109405 Z M4.92051784,9.87969112 L24.6044346,9.87969112 L24.6044346,13.578125 C24.6044346,14.2603641 25.1545839,14.8125 25.834641,14.8125 C26.5145761,14.8125 27.0648474,14.2603641 27.0648474,13.578125 L27.0648474,9.87969112 L52.8991837,9.87969112 L52.8991837,13.578125 C52.8991837,14.2603641 53.4493283,14.8125 54.1293901,14.8125 C54.8093251,14.8125 55.3595965,14.2603641 55.3595965,13.578125 L55.3595965,9.87969112 L73.8126921,9.87969112 C75.1693619,9.87969112 76.2731049,10.9870483 76.2731049,12.3484411 L76.2731049,20.984375 L2.46072215,20.984375 L2.46010521,20.9844974 L2.46010521,12.3484411 C2.46010521,10.9870483 3.56384637,9.87969112 4.92051784,9.87969112 L4.92051784,9.87969112 Z M76.2731053,74.0625 C76.2731053,75.4237669 75.1693623,76.53125 73.8126925,76.53125 L4.92051784,76.53125 C3.56384637,76.53125 2.46010521,75.4237669 2.46010521,74.0625 L2.46010521,23.4530026 L2.46072043,23.453125 L76.2731032,23.453125 L76.2731032,74.0625 L76.2731053,74.0625 Z"
      id="Shape" fill="#12CF7C"></path>
    <path
      d="M22.1440223,29.625 L12.3023712,29.625 L12.3023712,39.5 L22.1440223,39.5 L22.1440223,29.625 L22.1440223,29.625 Z M19.6836095,37.03125 L14.762784,37.03125 L14.762784,32.09375 L19.6836095,32.09375 L19.6836095,37.03125 L19.6836095,37.03125 Z"
      id="Shape" fill="#12CF7C"></path>
    <path
      d="M44.2877394,29.625 L34.446086,29.625 L34.446086,39.5 L44.2877394,39.5 L44.2877394,29.625 L44.2877394,29.625 Z M41.8273267,37.03125 L36.9064988,37.03125 L36.9064988,32.09375 L41.8273267,32.09375 L41.8273267,37.03125 L41.8273267,37.03125 Z"
      id="Shape" fill="#12CF7C"></path>
    <path
      d="M66.4314542,29.625 L56.5898032,29.625 L56.5898032,39.5 L66.4314542,39.5 L66.4314542,29.625 L66.4314542,29.625 Z M63.9710415,37.03125 L59.050216,37.03125 L59.050216,32.09375 L63.9710415,32.09375 L63.9710415,37.03125 L63.9710415,37.03125 Z"
      id="Shape" fill="#12CF7C"></path>
    <path
      d="M22.1440223,44.4375 L12.3023712,44.4375 L12.3023712,54.3125 L22.1440223,54.3125 L22.1440223,44.4375 L22.1440223,44.4375 Z M19.6836095,51.84375 L14.762784,51.84375 L14.762784,46.90625 L19.6836095,46.90625 L19.6836095,51.84375 L19.6836095,51.84375 Z"
      id="Shape" fill="#12CF7C"></path>
    <path
      d="M44.2877394,44.4375 L34.446086,44.4375 L34.446086,54.3125 L44.2877394,54.3125 L44.2877394,44.4375 L44.2877394,44.4375 Z M41.8273267,51.84375 L36.9064988,51.84375 L36.9064988,46.90625 L41.8273267,46.90625 L41.8273267,51.84375 L41.8273267,51.84375 Z"
      id="Shape" fill="#12CF7C"></path>
    <path
      d="M22.1440223,59.25 L12.3023712,59.25 L12.3023712,69.125 L22.1440223,69.125 L22.1440223,59.25 L22.1440223,59.25 Z M19.6836095,66.65625 L14.762784,66.65625 L14.762784,61.71875 L19.6836095,61.71875 L19.6836095,66.65625 L19.6836095,66.65625 Z"
      id="Shape" fill="#12CF7C"></path>
    <path
      d="M44.2877394,59.25 L34.446086,59.25 L34.446086,69.125 L44.2877394,69.125 L44.2877394,59.25 L44.2877394,59.25 Z M41.8273267,66.65625 L36.9064988,66.65625 L36.9064988,61.71875 L41.8273267,61.71875 L41.8273267,66.65625 L41.8273267,66.65625 Z"
      id="Shape" fill="#12CF7C"></path>
    <path
      d="M66.4314542,44.4375 L56.5898032,44.4375 L56.5898032,54.3125 L66.4314542,54.3125 L66.4314542,44.4375 L66.4314542,44.4375 Z M63.9710415,51.84375 L59.050216,51.84375 L59.050216,46.90625 L63.9710415,46.90625 L63.9710415,51.84375 L63.9710415,51.84375 Z"
      id="Shape" fill="#12CF7C"></path>
  </g>
</svg>
