<svg width="78px" height="96px" viewBox="0 0 78 96" version="1.1" xmlns="http://www.w3.org/2000/svg">
  <g id="Site-(1200)" stroke="none" stroke-width="1" fill="none" fill-rule="evenodd">
    <path
      d="M55.6970857,78.498335 C53.1283857,75.2225783 51.6581286,71.6059366 51.4988143,67.3454821 C47.7279714,68.8138912 43.9736429,68.7924794 40.1372286,67.5498671 C40.2127571,71.8358698 39.0429143,75.5225864 36.1101714,78.5238832 C41.5088857,82.4488056 50.6408,82.4356666 55.6970857,78.498335 M22.9720857,21.031835 C22.6619571,21.7021693 22.3853429,22.2291906 22.1684714,22.7798136 C19.5842286,29.3378965 19.7365,36.0808992 20.8366429,42.8844874 C21.7206429,48.350327 22.7591,53.7962147 23.4524571,59.2858992 C23.9418143,63.160942 23.6372714,67.0595864 22.1862,70.7699045 C21.9069143,71.4845222 21.5193143,72.1565596 21.0928571,73.0303056 C23.5794714,71.9558243 25.5174714,70.5557869 27.0438286,68.5902842 C28.959,66.1235516 30.2383714,63.333696 31.0881286,60.3589206 C33.7935571,50.8883511 33.6230714,41.2258056 32.8716714,31.5355222 C32.8512714,31.269335 32.6149714,30.9418324 32.3837714,30.7817307 C28.6488714,28.193827 25.4332,25.1020168 22.9720857,21.031835 M34.8609143,32.3102388 C34.9590286,34.0879019 35.0515571,35.6623965 35.1319429,37.2373778 C35.5205143,44.8370944 35.2487571,52.3818217 33.3061429,59.7951586 C33.2141,60.1469928 33.2983714,60.7088083 33.5303,60.9577201 C37.7769,65.5172094 42.9796286,67.5092334 49.0925857,66.036688 C55.0858143,64.5930971 58.9249,60.653089 60.5394143,54.675557 C60.9039429,53.3258858 61.0180857,51.8757254 61.0299857,50.4698484 C61.0576714,47.2719527 60.9520286,44.0728404 60.8961714,40.874458 C60.8837857,40.1598404 60.5654,39.8887869 59.7996714,39.7583698 C55.7029143,39.0605409 51.5915857,38.4009126 47.5453429,37.467311 C43.1258286,36.4473324 38.9571857,34.6781853 34.8609143,32.3102388 M69.3456571,38.422811 C64.3517857,38.449819 59.5713857,38.013311 54.8291143,37.1833618 C47.8112714,35.9551051 41.1110857,33.8175783 35.0423286,29.9736799 C30.9596571,27.3877227 27.4525571,24.2019928 24.8814286,20.0498136 C24.454,19.3595275 24.3869714,18.8342094 24.8984286,18.1171586 C27.7357286,14.1396799 31.6802143,11.8048243 36.2551571,10.4945703 C42.2998714,8.76338048 48.4186571,8.77724947 54.4485571,10.4845944 C62.2277571,12.6873297 66.4899,18.2281104 68.3276,25.8762468 C69.3077714,29.9556746 69.5397,34.0983644 69.3456571,38.422811 Z M24.12146,73.728824 C26.6756718,72.6898636 28.2793143,70.3384475 29.0909424,69.2070955 C30.9006348,66.6845125 31.4113714,64.9091639 32.2990143,63.2553484 C34.0072714,64.3918751 35.7893571,65.5541933 37.5359857,66.7673644 C37.7752,66.9335489 37.9495714,67.3481586 37.9660857,67.6578992 C38.1824714,71.6711452 37.0748,75.1751318 33.9732714,77.9005088 C32.9802286,78.7730382 34.7976237,77.6872443 35.920838,78.3848299 C36.5054121,78.7479038 37.048361,79.1621422 37.6179205,79.4627107 C40.510006,80.9889254 43.7687384,81.5194734 46.0620123,81.4555696 C47.4632329,81.4165235 49.0534545,81.3377112 50.8665758,80.8309969 C52.0208557,80.5084094 54.4498888,79.6163362 55.7062975,78.4919466 C56.9627062,77.3675569 58.4695429,78.8477361 57.4718857,77.6900409 C54.9466571,74.758819 53.6315857,71.3609179 53.4785857,67.4941479 C53.4516286,66.8157842 53.6534429,66.4320757 54.2654429,66.0529901 C60.0175143,62.4908511 62.9801286,57.332319 62.9743,50.515835 C62.9713857,47.0821666 62.9738143,43.6484981 62.9738143,40.2547334 L69.2657571,40.2547334 C68.9017143,43.2073671 68.5826,45.9668083 68.2171,48.7199233 C67.4482143,54.5156987 66.9934347,62.863816 68.7241214,68.4968504 C69.1207071,69.7876564 58.4025928,70.4826925 58.3320299,70.4907869 C58.1308549,70.5138639 57.3192125,70.6972078 57.3192125,71.2424959 C57.3192125,71.787784 57.3605887,72.293455 58.1416002,72.3837312 C59.4289537,72.5325349 22.4998513,74.8615144 17.0377197,74.8615144 C16.8925039,74.8615144 20.9805291,75.0064404 24.12146,73.728824 Z M58.3504657,72.3796997 C52.9273903,72.9267844 46.2735088,73.3090155 40.0490111,73.6789551 C33.1607961,74.0883414 26.5740752,74.4788611 22.2405394,74.6731568 C18.8819157,74.8237419 16.894409,74.8278194 17.0567627,74.8130494 C19.0020484,74.6359157 19.7542286,71.7039928 20.4767286,69.9725596 C21.4950286,67.5321051 21.6975714,64.9410382 21.6978143,62.3446184 C21.6983,56.9318217 20.8128429,51.627057 19.6869571,46.3461372 C18.3179714,39.9250409 17.6763429,33.4555249 19.0324571,26.937589 C21.3388714,15.8518912 28.8448571,9.30135107 39.8093714,7.53001417 C44.5674286,6.76138048 49.3398143,6.9153992 54.0177286,8.11591791 C63.3155143,10.5023564 68.4866714,16.7993618 70.4824714,25.9584874 C71.8099286,32.0501345 71.6744143,38.1843618 70.8380143,44.332458 C70.0412,50.1883324 68.8954,56.0344741 69.3349714,61.9747789 C69.5205143,64.484335 69.9834,67.0598297 70.8443286,69.4126906 C71.2749258,70.5895189 65.951326,71.6129183 58.3504657,72.3796997 Z"
      id="Combined-Shape" fill="#12CF7C"></path>
    <circle id="Oval-6" fill="#FFFFFF" cx="17.5" cy="17.5" r="17.5"></circle>
    <path
      d="M40.1520996,59.0508102 C41.7360139,58.7442326 43.7074634,58.7333038 45.4171777,59.7304107 C46.9709777,59.0011942 47.3589291,59.1816779 48.3728027,59.0508102 C49.3866763,58.9199424 50.4867557,58.9717326 50.6822557,59.0508102 C48.4435986,61.5199759 48.0497167,62.1144439 45.4171777,62.1144439 C42.7846387,62.1144439 42.0220337,60.9172394 41.7545776,60.6698639"
      id="Fill-18" fill="#12CF7C"></path>
    <path
      d="M33.911621,78.4975006 L28.2208252,89.3114655 C28.2208252,89.3114655 28.1879042,90.7516043 29.1988525,91.0816071 C31.4029541,91.8010895 39.4371347,93.3866608 48.4382333,93.546817 C57.4393319,93.7069733 63.1950673,92.0066559 63.1950673,92.0066559 C63.1950673,92.0066559 64.0775136,91.6929352 63.7237539,90.5667145 C63.3699941,89.4404938 62.6486806,90.161319 62.6486806,90.161319 C62.6486806,90.161319 56.646008,91.7276471 48.0028085,91.6343414 C39.3596089,91.5410357 32.0378417,89.8853447 31.0173339,89.6377594 C29.9968261,89.3901741 31.017334,88.2404205 31.017334,88.2404205 L36.095642,78.4975006 L33.911621,78.4975006 Z"
      id="Path-2" fill="#12CF7C"></path>
    <path
      d="M61.5925264,78.3964874 L55.7390108,90.463443 C55.7390108,90.463443 55.3508272,91.2786285 56.1375704,91.8458893 C56.9243136,92.41315 57.4457979,91.4714996 57.4457979,91.4714996 L63.8248878,78.3964874 L61.5925264,78.3964874 Z"
      id="Path-2" fill="#12CF7C"
      transform="translate(59.734068, 85.212072) scale(-1, 1) translate(-59.734068, -85.212072) "></path>
    <path
      d="M77.1602068,75.6080963 C77.1602068,75.6080963 76.5405776,76.2554352 75.530446,76.59888 C74.5203144,76.9423248 69.7158831,78.0196682 67.2911882,78.7560455 C60.9318135,80.687381 55.7799578,93.3604156 55.7799578,93.3604156 C55.7799578,93.3604156 55.3527117,94.6178619 56.1160173,95.0227692 C56.879323,95.4276764 57.5636492,94.3921539 57.5636492,94.3921539 C57.5636492,94.3921539 59.0775907,90.5997108 61.4215593,86.9856598 C63.4392326,83.8747076 66.9345674,80.7088869 68.9108167,80.2615387 C72.4286232,79.4652401 73.8120627,79.1721832 75.232595,78.7560455 C76.6531272,78.3399078 77.4994407,78.4456207 77.4994407,78.4456207 L77.1602068,75.6080963 Z"
      id="Path-3" fill="#12CF7C"
      transform="translate(66.580103, 85.362388) scale(-1, 1) translate(-66.580103, -85.362388) "></path>
    <path
      d="M36.2109375,75.4307892 C36.2109375,75.4307892 35.1672871,76.3327667 34.1571555,76.6762115 C33.1470239,77.0196564 28.3425926,78.0969998 25.9178977,78.8333771 C19.5585229,80.7647125 14.4066672,93.4377472 14.4066672,93.4377472 C14.4066672,93.4377472 13.9794211,94.6951935 14.7427268,95.1001007 C15.5060324,95.5050079 16.1903586,94.4694855 16.1903586,94.4694855 C16.1903586,94.4694855 17.7043002,90.6770424 20.0482688,87.0629913 C22.0659421,83.9520391 25.5612769,80.7862185 27.5375261,80.3388702 C31.0553326,79.5425716 32.4387722,79.2495148 33.8593044,78.8333771 C35.2798367,78.4172394 36.1261501,78.5229523 36.1261501,78.5229523 L36.2109375,75.4307892 Z"
      id="Path-3" fill="#12CF7C"></path>
    <path
      d="M53.3527255,45.1417314 C53.132634,45.4027571 53,45.7399375 53,46.1080963 C53,46.9365234 53.6715729,47.6080963 54.5,47.6080963 C55.3284271,47.6080963 56,46.9365234 56,46.1080963 C56,45.6526242 55.7969944,45.2445667 55.4765277,44.9694681 C57.4770672,45.005153 58.7786054,45.4273121 58.7786054,45.4273121 C58.7786054,45.4273121 59.5987136,45.5188673 59.8334219,44.8570028 C60.0681301,44.1951383 59.2773313,43.890965 59.2773313,43.890965 C59.2773313,43.890965 56.843306,43.3199327 54.8617649,43.2771157 C53.2168375,43.2415721 51.2644625,43.9038543 50.6486125,44.12989 C50.5225865,44.1761454 50.4525295,44.2041323 50.4525295,44.2041323 C50.4525295,44.2041323 49.6725538,44.7136385 49.9776128,45.3847168 C50.2826718,46.0557951 51.1917907,45.891959 51.1917907,45.891959 C51.1917907,45.891959 52.0099071,45.4094707 53.3527255,45.1417314 Z"
      id="Combined-Shape" fill="#12CF7C"></path>
    <path
      d="M37.3101209,45.0895677 C37.0900294,45.3505934 36.9573954,45.6877738 36.9573954,46.0559326 C36.9573954,46.8843598 37.6289683,47.5559326 38.4573954,47.5559326 C39.2858225,47.5559326 39.9573954,46.8843598 39.9573954,46.0559326 C39.9573954,45.5998314 39.7538285,45.1912757 39.4325944,44.9161652 C41.0746624,44.9426816 40.3148744,45.2694434 40.3148744,45.2694434 C40.3148744,45.2694434 41.1349827,45.3609986 41.3696909,44.6991341 C41.6043992,44.0372696 40.8136003,43.7330963 40.8136003,43.7330963 C40.8136003,43.7330963 40.8007014,43.267769 38.8191603,43.224952 C37.1742329,43.1894084 35.2218579,43.8516906 34.6060079,44.0777263 C34.4799819,44.1239817 34.4099249,44.1519686 34.4099249,44.1519686 C34.4099249,44.1519686 33.6299492,44.6614748 33.9350082,45.3325531 C34.2400672,46.0036314 35.1491861,45.8397953 35.1491861,45.8397953 C35.1491861,45.8397953 35.9673025,45.357307 37.3101209,45.0895677 Z"
      id="Combined-Shape" fill="#12CF7C"
      transform="translate(37.638734, 45.389754) scale(-1, 1) translate(-37.638734, -45.389754) "></path>
  </g>
  <g id="ico" transform="translate(2.000000, 2.000000)">
    <circle id="Oval-6" fill="#12CF7C" cx="15.5" cy="15.5" r="15.5"></circle>
    <path
      d="M13.5047776,17.6199193 L10.0974776,14.2126193 C9.70578469,13.8209264 9.07396793,13.8176834 8.67514356,14.2165078 L8.29705563,14.5945957 C7.90321515,14.9884362 7.9000597,15.6238223 8.29316713,16.0169298 L12.7543683,20.4781309 C12.9870697,20.7108323 13.3045214,20.8064324 13.60752,20.7620759 C13.8457489,20.750779 14.0794355,20.6538823 14.2607412,20.4725766 L22.6383903,12.0949276 C23.0276248,11.705693 23.0228389,11.0719374 22.6289984,10.6780969 L22.2509104,10.300009 C21.8520861,9.9011846 21.2227333,9.9019636 20.8340798,10.2906171 L13.5047776,17.6199193 Z"
      id="Combined-Shape" fill="#FFFFFF"></path>
  </g>
</svg>
