<svg xmlns="http://www.w3.org/2000/svg" width="20" height="20" viewBox="0 0 20 20" id="icon-clock" x="178" y="193"><title>Clock</title><path d="M10 20C4.486 20 0 15.514 0 10S4.486 0 10 0s10 4.486 10 10-4.486 10-10 10zm0-18.333c-4.596 0-8.333 3.737-8.333 8.333S5.404 18.333 10 18.333s8.333-3.737 8.333-8.333S14.596 1.667 10 1.667zm3.333 12.5a.83.83 0 0 1-.589-.244L9.411 10.59a.827.827 0 0 1-.18-.271.819.819 0 0 1-.064-.319V4.167a.834.834 0 1 1 1.666 0v5.489l3.09 3.088a.833.833 0 0 1-.59 1.423z" fill="#12CF7C" fill-rule="evenodd"/></svg>
