<svg xmlns="http://www.w3.org/2000/svg" width="20" height="20" viewBox="0 0 20 20" id="icon-calendar" x="60" y="78"><title>1489936425_General_-_Office_41</title><g fill="#12CF7C" fill-rule="evenodd"><path d="M3.637 0v1.022H0v18.786h16.898c1.357 0 2.46-1.084 2.46-2.415V1.022h-3.637V0h-1.283v1.022h-4.117V0H9.038v1.022H4.92V0H3.637zm14.438 17.394c0 .636-.527 1.155-1.177 1.155H1.283V6.243h16.792v11.15zM9.038 2.28v1.077h1.282V2.28h4.118v1.077h1.282V2.28h2.355v2.703H1.283V2.281h2.354v1.077H4.92V2.28h4.118z"/><path d="M6.676 8h-4.01v3.935h4.01V8zm-1.283 2.676H3.95V9.26h1.443v1.416zm6.351-2.653H7.735v3.935h4.01V8.023zm-1.283 2.676H9.018V9.282h1.443V10.7zM16.75 8.05h-4.01v3.934h4.01V8.05zm-1.283 2.675h-1.443V9.31h1.443v1.416zm-8.791 2.608h-4.01v3.936h4.01v-3.936zM5.393 16.01H3.95v-1.417h1.443v1.417zm6.38-2.646h-4.01V17.3h4.01v-3.935zM10.49 16.04H9.046v-1.417h1.444v1.417zm6.297-2.696h-4.009v3.935h4.01v-3.935zm-1.283 2.676h-1.443v-1.417h1.443v1.417z"/></g></svg>
