<svg width="14" height="25" x="380" y="397" xmlns="http://www.w3.org/2000/svg" fill="#FFF" fill-rule="evenodd">
  <path
    d="M9.938 0c-3.699 0-6.09 2.393-6.09 6.097v2.811H.539a.512.512 0 0 0-.518.505v4.073c0 .28.232.505.518.505h3.31V24.27c0 .279.232.505.518.505h4.32a.512.512 0 0 0 .518-.505V13.99h3.87a.511.511 0 0 0 .518-.505l.002-4.073a.5.5 0 0 0-.152-.357.524.524 0 0 0-.366-.148H9.204V6.525c0-1.145.28-1.727 1.808-1.727h2.219a.511.511 0 0 0 .517-.506V.51a.512.512 0 0 0-.517-.505L9.938 0z"
    />
</svg>
