<svg width="80" height="80" x="394" y="422" xmlns="http://www.w3.org/2000/svg" fill="black" fill-rule="evenodd">
  <path
    d="M10.653 39.84l-.817-2.453-.79 2.452H6.431l2.118 1.515c-.269.803-.537 1.608-.804 2.412l-.014.053 2.104-1.514 2.077 1.5.054.014-.804-2.465 2.103-1.502-2.613-.013zm24.584-2.49l.025-.006s-.012.2-.012.398v.264l1.812-.34V32.34l-3.177.597v1.964l1.253-.236v.725c-.509.517-1.154.902-1.8 1.023-1.377.26-2.544-.589-2.544-2.381 0-1.397.757-2.805 2.62-3.155.756-.142 1.65.072 2.159.464l1.042-1.923c-.943-.705-2.21-.836-3.413-.61-2.706.509-4.654 2.984-4.654 5.725 0 3.084 2.085 4.498 4.356 4.071.869-.164 1.8-.655 2.333-1.256zm6.143-5.768c.546-.103.88.295.88.849l-1.91.359c.111-.561.409-1.092 1.03-1.208zm.235 5.385c.98-.184 2.036-.738 2.73-1.502l-.794-1.445c-.52.467-1.129.898-1.762 1.017-.683.128-1.328-.133-1.49-.933l4.034-.758c.025-.242.05-.484.05-.721 0-1.885-1.067-3.081-2.954-2.727-2.06.388-3.326 2.18-3.326 4.171 0 1.806 1.228 3.328 3.512 2.898zM27.956 48.271c-1.713.322-2.507-.965-2.507-2.362 0-1.357.732-2.826 2.507-3.16.794-.15 1.65.125 2.222.545l1.005-1.93c-.869-.745-2.135-.929-3.326-.705-2.743.516-4.655 2.984-4.655 5.725 0 2.794 1.8 4.551 4.655 4.015 1.626-.306 2.792-1.25 3.574-2.254l-1.117-1.477c-.608.76-1.477 1.438-2.358 1.603zm23.609 18.46l1.864-.875.072 2.578-1.936-1.704zm1.762-3.234l.047 1.523-2.417 1.133-1.148-1.007-.86.403 4.633 4.082.772-.362-.176-6.172-.851.4zm-18.186 2.9c-.628-.097-1.192-.029-1.698.194l-.135.882c.481-.275 1.04-.36 1.668-.264.595.092 1.059.358 1.397.808.33.45.451.98.36 1.577-.092.596-.358 1.06-.807 1.389-.45.33-.973.453-1.553.364a2.731 2.731 0 0 1-1.435-.668l-.136.882c.4.314.88.518 1.453.605.842.13 1.583-.033 2.224-.496.64-.455 1.024-1.104 1.152-1.939.128-.834-.044-1.568-.516-2.202-.482-.627-1.14-1.004-1.974-1.133zm12.137 1.7c-.492.118-.941.31-1.347.583l-.556-2.288-.86.209 1.33 5.467.86-.21-.57-2.342a3.043 3.043 0 0 1 1.206-.583c.852-.207 1.312-.014 1.51.799l.368 1.515.86-.209-.411-1.687c-.281-1.156-1.078-1.574-2.39-1.255zm-8.351-1.1l.037.81 3.22-.145.081 1.782-2.538.116.037.81 2.538-.114.064 1.405-3.116.142.037.81 4-.18-.256-5.623-4.104.187zm8.951-34.172v-2.083l1.34-.252v-1.78l-1.34.253v-1.95l-2.085.391v1.95l-.88.166v1.78l.818-.154v2.385c0 2.28 1.974 2.2 2.991 2.008.248-.047.423-.106.584-.15v-1.976a2.657 2.657 0 0 1-.286.066c-.41.078-1.142.11-1.142-.654zm26.088 7.027l-2.613-.013-.818-2.452-.79 2.452h-2.613l2.117 1.515-.804 2.412-.014.053 2.104-1.514 2.077 1.5.054.014-.804-2.465 2.104-1.502zM40 77.592C19.239 77.592 2.408 60.762 2.408 40 2.408 19.239 19.238 2.408 40 2.408c20.761 0 37.592 16.83 37.592 37.592 0 20.761-16.83 37.592-37.592 37.592zM0 40c0 22.091 17.909 40 40 40s40-17.909 40-40S62.091 0 40 0 0 17.909 0 40zm40 21.627c-11.944 0-21.627-9.683-21.627-21.627 0-11.944 9.683-21.627 21.627-21.627 11.944 0 21.627 9.683 21.627 21.627 0 11.944-9.683 21.627-21.627 21.627zm0-45.145c-12.989 0-23.518 10.53-23.518 23.518 0 12.989 10.53 23.518 23.518 23.518 12.989 0 23.518-10.53 23.518-23.518 0-12.989-10.53-23.518-23.518-23.518zm-5.437 29.69v-6.615l-2.147.403v6.92c0 2.28 1.216 2.34 2.358 2.126.273-.051.496-.12.645-.16v-1.978c-.1.032-.198.051-.26.063-.484.09-.596-.113-.596-.759zm3.89-2.18c.11-.562.409-1.092 1.03-1.209.546-.102.88.296.88.85l-1.91.359zm4.033-.166c0-1.884-1.068-3.08-2.954-2.726-2.06.387-3.326 2.18-3.326 4.17 0 1.806 1.228 3.328 3.512 2.899.98-.184 2.036-.739 2.73-1.502l-.794-1.445c-.521.467-1.13.897-1.762 1.016-.683.129-1.328-.132-1.49-.932l4.034-.758c.025-.242.05-.484.05-.722zm4.351.105c0 .553-.471 1.288-1.091 1.404-.398.075-.609-.149-.609-.465 0-.62.844-.962 1.502-1.086l.198-.038v.185zm-.732-4.067c-1.042.196-2.16.841-2.705 1.392l.744 1.468c.51-.452 1.142-.86 1.763-.977.471-.089.906.014.906.58v.12l-.186.034c-1.577.296-3.612 1.18-3.612 2.999 0 1.173.856 1.908 2.085 1.677a2.906 2.906 0 0 0 1.899-1.346l.025-.004s-.025.202-.025.427v.408l1.961-.369v-4.178c0-1.726-1.092-2.562-2.855-2.23zM30.976 65.4l-.83-.305-1.663 4.52-1.75-.645-.281.763 4.323 1.59.281-.761-1.743-.642 1.663-4.52zm23.477-27.105c-1.129.212-1.737.972-2.035 1.555l-.025.005s.025-.202.025-.426v-.593l-2.06.387v6.787l2.147-.403v-3.071c0-.962.434-1.887 1.39-2.067.472-.089.708.13.708.763v3.98l2.147-.403v-4.402c0-1.911-1.006-2.355-2.297-2.112zm3.108 22.212l1.655 2.135-3.752-.509-.954.74 4.263.561-.482 3.63.896-.695.414-3.231 1.41 1.817.699-.542-3.45-4.448-.7.542zM24.929 14.99l-1.733 1.113-.41-2.546 2.143 1.433zm-1.32 3.437l-.249-1.503 2.247-1.442 1.27.847.799-.513-5.13-3.434-.716.46.987 6.093.792-.508zm27.846-3.234l4.643-2.312-1.862 3.708.79.397 2.526-5.03-.69-.347-4.621 2.305 1.854-3.694-.79-.397-2.526 5.03.676.34zm-4.417-1.437l.855.224 1.221-4.657 1.805.473.205-.786-4.455-1.168-.206.785 1.796.47-1.221 4.659zm-6.607-3.434l2.932.145-.129 2.595.884.044.278-5.624-.883-.044-.11 2.217-2.932-.145.11-2.217-.884-.044-.278 5.624.883.044.129-2.595zm-12.652.293l1.37-.516c.624-.236 1.098-.096 1.288.408.19.504-.071.93-.696 1.165l-1.37.515-.592-1.572zm1.698 4.507l-.82-2.174 1.438-.542c.55-.207.924-.511 1.123-.921.205-.413.221-.849.048-1.308-.17-.451-.466-.76-.888-.92-.416-.17-.899-.15-1.448.056l-2.265.853 1.984 5.268.828-.312zm5.261-6.228l1.42 2.153-2.029.353.61-2.506zm-.776 3.327l2.63-.457.842 1.274.935-.163-3.394-5.156-.84.146-1.455 5.999.927-.161.355-1.482zm-12.917 8.437l-3.21-3.59 2.277-2.037-.541-.606-2.937 2.627 3.752 4.195.66-.59zm-3.137 41.92l.896-2.418 1.485 1.426-2.38.992zm4.546-1.934l-1.404.591-1.926-1.85.53-1.432-.685-.658-2.148 5.788.614.591 5.697-2.378-.678-.652zm1.473 4.183c-.595-.367-.772-.845-.481-1.317.3-.486.83-.547 1.41-.188l1.465.905-.93 1.505-1.464-.905zm.289 2.807l-1.293-.799c-.5-.308-.663-.702-.413-1.106.249-.404.678-.441 1.178-.132l1.293.799-.765 1.238zm.93-5.087c-.498-.309-.965-.427-1.404-.358-.446.065-.793.304-1.043.708-.435.705-.285 1.44.23 1.909-.447-.087-.941.1-1.245.592-.457.74-.173 1.52.682 2.048l2.176 1.344L27.5 64l-2.353-1.453zm34.436-47.181c.326-.399.817-.402 1.308 0l1.27 1.038-1.048 1.281-1.27-1.038c-.491-.401-.59-.877-.26-1.281zm-3.63 2.18l.827.677 2.819-.769 1.02.835-1.506 1.842.684.56 3.562-4.356-1.985-1.623c-.896-.733-1.845-.69-2.456.057-.493.604-.51 1.348-.011 1.995l-2.955.782z" />
</svg>
