<svg width="20" height="15" x="313" y="347" xmlns="http://www.w3.org/2000/svg" fill="#FFF" fill-rule="evenodd">
  <path
    d="M19.968 12.463c0 .437-.124.842-.32 1.198l-6.305-7.044 6.236-5.448c.242.384.389.836.389 1.324v9.97zM9.984 7.896L18.66.314A2.468 2.468 0 0 0 17.471 0H2.497c-.433 0-.834.12-1.189.314l8.677 7.582zm2.419-.458l-2.009 1.756a.624.624 0 0 1-.82 0l-2.01-1.757-6.384 7.135c.382.24.83.383 1.316.383h14.976c.485 0 .933-.144 1.316-.383l-6.385-7.134zM.389 1.168A2.472 2.472 0 0 0 0 2.494v9.97c0 .437.123.842.32 1.199l6.304-7.046L.39 1.169z"
    />
</svg>
