<svg width="151px" height="29px" viewBox="0 0 151 29" version="1.1" xmlns="http://www.w3.org/2000/svg" xmlns:xlink="http://www.w3.org/1999/xlink">
  <!-- Generator: Sketch 44.1 (41455) - http://www.bohemiancoding.com/sketch -->
  <title>logo</title>
  <desc>Created with Sketch.</desc>
  <defs>
    <path d="M370,89.444 C370,97.026 375.474,101.956 381.832,101.956 C384.586,101.956 387.272,100.902 388.836,99.372 L388.904,99.372 C388.904,99.372 388.87,99.882 388.87,100.392 L388.87,101.548 L392.61,101.548 L392.61,88.832 L384.96,88.832 L384.96,92.606 L388.666,92.606 L388.666,95.428 C387.068,96.958 384.858,97.944 382.614,97.944 C378.092,97.944 374.522,94.51 374.522,89.308 C374.522,84.82 377.412,81.012 382.818,81.012 C385.096,81.012 387.748,81.998 389.244,83.324 L391.42,80.06 C388.938,77.918 385.606,77 382.444,77 C375.27,77 370,82.44 370,89.444 L370,89.444 Z M395.772,92.878 C395.772,97.808 399.376,101.956 405.122,101.956 C407.604,101.956 410.324,101.038 412.092,99.474 L410.392,96.38 C408.998,97.502 407.196,98.284 405.428,98.284 C402.81,98.284 400.498,96.72 400.226,93.694 L412.16,93.694 C412.228,93.15 412.296,92.572 412.296,92.028 C412.296,87.438 409.576,83.8 404.612,83.8 C399.41,83.8 395.772,87.54 395.772,92.878 L395.772,92.878 Z M400.328,90.736 C400.736,88.526 402.3,87.064 404.51,87.064 C406.448,87.064 407.944,88.424 407.978,90.736 L400.328,90.736 Z M416.75,95.19 C416.75,101.004 421.544,101.718 423.958,101.718 C424.536,101.718 424.944,101.65 425.284,101.616 L425.284,97.842 C424.944,97.91 424.74,97.91 424.502,97.91 C423.312,97.91 421.068,97.502 421.068,94.646 L421.068,87.88 L425.012,87.88 L425.012,84.446 L421.068,84.446 L421.068,79.482 L416.852,79.482 L416.852,84.446 L414.506,84.446 L414.506,87.88 L416.75,87.88 L416.75,95.19 Z M427.8,89.376 C427.8,96.482 432.696,101.956 440.278,101.956 C444.596,101.956 447.69,100.154 449.764,98.046 L447.452,94.884 C445.616,96.686 443.032,97.944 440.448,97.944 C435.212,97.944 432.322,93.83 432.322,89.308 C432.322,84.854 435.11,81.012 440.414,81.012 C442.76,81.012 445.31,82.1 447.01,83.562 L449.118,80.298 C446.772,78.02 443.372,77 440.21,77 C432.934,77 427.8,82.372 427.8,89.376 L427.8,89.376 Z M452.926,96.142 C452.926,101.106 455.884,101.718 458.264,101.718 C458.842,101.718 459.318,101.65 459.624,101.616 L459.624,97.842 C459.386,97.876 459.148,97.876 458.978,97.876 C457.856,97.876 457.21,97.4 457.21,95.496 L457.21,77.408 L452.926,77.408 L452.926,96.142 Z M461.698,92.878 C461.698,97.808 465.302,101.956 471.048,101.956 C473.53,101.956 476.25,101.038 478.018,99.474 L476.318,96.38 C474.924,97.502 473.122,98.284 471.354,98.284 C468.736,98.284 466.424,96.72 466.152,93.694 L478.086,93.694 C478.154,93.15 478.222,92.572 478.222,92.028 C478.222,87.438 475.502,83.8 470.538,83.8 C465.336,83.8 461.698,87.54 461.698,92.878 L461.698,92.878 Z M466.254,90.736 C466.662,88.526 468.226,87.064 470.436,87.064 C472.374,87.064 473.87,88.424 473.904,90.736 L466.254,90.736 Z M480.5,96.754 C480.5,99.916 483.084,101.956 486.212,101.956 C488.558,101.956 490.632,100.664 491.686,98.828 L491.754,98.828 C491.754,98.828 491.652,99.372 491.652,100.086 L491.652,101.548 L495.664,101.548 L495.664,90.702 C495.664,86.316 492.978,83.8 488.456,83.8 C485.872,83.8 483.084,84.786 481.656,85.942 L483.254,89.036 C484.648,88.084 486.382,87.37 488.082,87.37 C489.884,87.37 491.346,88.152 491.346,90.43 L491.346,90.668 L490.598,90.668 C486.756,90.668 480.5,91.552 480.5,96.754 L480.5,96.754 Z M484.784,96.38 C484.784,93.932 488.456,93.626 490.632,93.626 L491.38,93.626 L491.38,94.102 C491.38,96.21 489.816,98.658 487.402,98.658 C485.668,98.658 484.784,97.536 484.784,96.38 L484.784,96.38 Z M500.084,101.548 L504.402,101.548 L504.402,93.422 C504.402,90.294 506.34,87.744 509.4,87.744 C511.576,87.744 512.12,89.172 512.12,91.28 L512.12,101.548 L516.438,101.548 L516.438,90.396 C516.438,85.806 514.228,83.8 510.386,83.8 C506.884,83.8 504.946,86.01 504.232,87.472 L504.164,87.472 C504.164,87.472 504.232,86.928 504.232,86.248 L504.232,84.208 L500.084,84.208 L500.084,101.548 Z" id="path-1"></path>
    <filter x="-2.4%" y="-10.0%" width="104.8%" height="128.0%" filterUnits="objectBoundingBox" id="filter-2">
      <feOffset dx="0" dy="1" in="SourceAlpha" result="shadowOffsetOuter1"></feOffset>
      <feGaussianBlur stdDeviation="1" in="shadowOffsetOuter1" result="shadowBlurOuter1"></feGaussianBlur>
      <feColorMatrix values="0 0 0 0 0   0 0 0 0 0   0 0 0 0 0  0 0 0 0.25 0" type="matrix" in="shadowBlurOuter1"></feColorMatrix>
    </filter>
  </defs>
  <g id="Site-(1200)" stroke="none" stroke-width="1" fill="none" fill-rule="evenodd">
    <g id="Index-1200" transform="translate(-368.000000, -6400.000000)">
      <g id="Footer" transform="translate(0.000000, 6324.000000)">
        <g id="logo">
          <use fill="black" fill-opacity="1" filter="url(#filter-2)" xlink:href="#path-1"></use>
          <use fill="#FFFFFF" fill-rule="evenodd" xlink:href="#path-1"></use>
        </g>
      </g>
    </g>
  </g>
</svg>
