<svg width="12" height="20" x="573" y="559" xmlns="http://www.w3.org/2000/svg" fill="black" fill-rule="evenodd">
  <path
    d="M11.373.593A1.913 1.913 0 0 0 9.972 0H1.998C1.458 0 .991.198.597.593a1.92 1.92 0 0 0-.592 1.404v15.976c0 .54.197 1.009.592 1.404.394.395.861.593 1.401.593h7.974c.54 0 1.007-.198 1.401-.593a1.92 1.92 0 0 0 .592-1.404V1.997a1.92 1.92 0 0 0-.592-1.404zM4.74 1.997h2.492c.166 0 .25.083.25.25 0 .166-.084.25-.25.25H4.74c-.166 0-.249-.084-.249-.25 0-.167.083-.25.25-.25zm2.126 16.857a1.2 1.2 0 0 1-.88.367 1.2 1.2 0 0 1-.88-.367 1.204 1.204 0 0 1-.366-.881c0-.343.122-.637.366-.882a1.2 1.2 0 0 1 .88-.367 1.2 1.2 0 0 1 .88.367c.244.245.366.539.366.882 0 .343-.122.637-.366.881zm3.605-3.377a.48.48 0 0 1-.148.35.479.479 0 0 1-.35.149H1.998a.479.479 0 0 1-.35-.148.48.48 0 0 1-.148-.351V4.493a.48.48 0 0 1 .148-.35.48.48 0 0 1 .35-.149h7.974c.135 0 .251.05.35.148a.48.48 0 0 1 .148.351v10.984z" />
</svg>
