<svg width="1374" height="1312" xmlns="http://www.w3.org/2000/svg" xmlns:xlink="http://www.w3.org/1999/xlink">
<svg width="8" height="8" x="14" y="11" xmlns="http://www.w3.org/2000/svg">
  <path d="M4.75 4.75H8v-1.5H4.75V0h-1.5v3.25H0v1.5h3.25V8h1.5V4.75z" fill="#12CF7C" fill-rule="evenodd"/>
</svg>
<svg width="9" height="14" x="42" y="50" xmlns="http://www.w3.org/2000/svg">
  <path
    d="M5.11 6.845L.37 11.583a1.25 1.25 0 1 0 1.77 1.767l5.504-5.504a1.25 1.25 0 0 0 .12-1.883L2.171.37A1.25 1.25 0 0 0 .403 2.138l4.706 4.707z"
    fill-rule="evenodd"/>
</svg>
<svg width="9" height="14" x="51" y="64" xmlns="http://www.w3.org/2000/svg">
  <path
    d="M5.11 6.845L.37 11.583a1.25 1.25 0 1 0 1.77 1.767l5.504-5.504a1.25 1.25 0 0 0 .12-1.883L2.171.37A1.25 1.25 0 0 0 .403 2.138l4.706 4.707z"
    fill="#c2c2c2" fill-rule="evenodd"/>
</svg>
<svg width="20" height="20" x="60" y="78" xmlns="http://www.w3.org/2000/svg">
  <g fill="#12CF7C" fill-rule="evenodd">
    <path
      d="M3.637 0v1.022H0v18.786h16.898c1.357 0 2.46-1.084 2.46-2.415V1.022h-3.637V0h-1.283v1.022h-4.117V0H9.038v1.022H4.92V0H3.637zm14.438 17.394c0 .636-.527 1.155-1.177 1.155H1.283V6.243h16.792v11.15zM9.038 2.28v1.077h1.282V2.28h4.118v1.077h1.282V2.28h2.355v2.703H1.283V2.281h2.354v1.077H4.92V2.28h4.118z"/>
    <path
      d="M6.676 8h-4.01v3.935h4.01V8zm-1.283 2.676H3.95V9.26h1.443v1.416zm6.351-2.653H7.735v3.935h4.01V8.023zm-1.283 2.676H9.018V9.282h1.443V10.7zM16.75 8.05h-4.01v3.934h4.01V8.05zm-1.283 2.675h-1.443V9.31h1.443v1.416zm-8.791 2.608h-4.01v3.936h4.01v-3.936zM5.393 16.01H3.95v-1.417h1.443v1.417zm6.38-2.646h-4.01V17.3h4.01v-3.935zM10.49 16.04H9.046v-1.417h1.444v1.417zm6.297-2.696h-4.009v3.935h4.01v-3.935zm-1.283 2.676h-1.443v-1.417h1.443v1.417z"/>
  </g>
</svg>
<svg width="13" height="13" x="80" y="98" xmlns="http://www.w3.org/2000/svg">
  <g transform="translate(-1 -1)" fill="#E86363" fill-rule="evenodd">
    <rect transform="rotate(45 7.5 7.5)" x="6" y="-1" width="3" height="17" rx="1.5"/>
    <rect transform="rotate(135 7.5 7.5)" x="6" y="-1" width="3" height="17" rx="1.5"/>
  </g>
</svg>
<svg width="45" height="45" viewBox="2 1 45 45" x="93" y="111" xmlns="http://www.w3.org/2000/svg">
  <defs>
    <circle id="a" cx="22.5" cy="22.5" r="22.5"/>
    <path id="c"
          d="M19.205 3.3a11.181 11.181 0 0 1 3.295 7.956c0 3.002-1.169 5.83-3.295 7.956a11.173 11.173 0 0 1-7.956 3.294c-1.866 0-3.7-.462-5.33-1.338-1.212.834-2.664 1.31-4.045 1.31-.278 0-.546-.024-.796-.061a1.045 1.045 0 0 1-.877-.882 1.054 1.054 0 0 1 .575-1.098c.67-.33 1.268-1.018 1.772-2.05-3.653-4.44-3.356-10.992.745-15.092A11.173 11.173 0 0 1 11.249 0c3.007 0 5.83 1.174 7.956 3.3zm-12.08 9.45a1.125 1.125 0 1 0 0-2.25 1.125 1.125 0 0 0 0 2.25zm4.125 0a1.125 1.125 0 1 0 0-2.25 1.125 1.125 0 0 0 0 2.25zm4.125 0a1.125 1.125 0 1 0 0-2.25 1.125 1.125 0 0 0 0 2.25z"/>
    <filter id="b" width="144.4%" height="144.4%" x="-22.2%" y="-17.8%" filterUnits="objectBoundingBox">
      <feOffset dy="1" in="SourceAlpha" result="shadowOffsetOuter1"/>
      <feGaussianBlur in="shadowOffsetOuter1" result="shadowBlurOuter1" stdDeviation="1.5"/>
      <feColorMatrix in="shadowBlurOuter1" values="0 0 0 0 1 0 0 0 0 0.651175555 0 0 0 0 0.210957229 0 0 0 1 0"/>
    </filter>
  </defs>
  <g fill="none" fill-rule="evenodd">
    <use fill="#FFE06C" xlink:href="#a" transform="translate(2 1)"/>
    <g fill-rule="nonzero" transform="translate(13.25 12.25)">
      <use fill="#000" filter="url(#b)" xlink:href="#c"/>
      <use fill="#FFF" xlink:href="#c"/>
    </g>
  </g>
</svg>
<svg width="10" height="7" x="138" y="156" xmlns="http://www.w3.org/2000/svg">
  <path
    d="M3.702 4.934l-2.42-2.42A.75.75 0 0 0 .22 3.574L3.156 6.51a.751.751 0 0 0 .892.127.76.76 0 0 0 .23-.158l5.195-5.196a.75.75 0 1 0-1.06-1.06L3.702 4.934z"
    fill="#FFF" fill-rule="evenodd"/>
</svg>
<svg width="30" height="30" x="148" y="163" xmlns="http://www.w3.org/2000/svg">
  <g fill="#12CF7C">
    <path
      d="M18 26.56c-.248.06-.5.113-.75.158a1.178 1.178 0 0 0-.964 1.37c.06.314.243.575.49.746.256.176.582.255.913.195.298-.054.598-.117.892-.19a1.173 1.173 0 0 0 .877-1.423c-.16-.63-.813-1.013-1.459-.856zm8.903-15.75c.084.248.245.45.448.59.302.208.696.277 1.073.156a1.17 1.17 0 0 0 .764-1.485c-.095-.28-.2-.562-.313-.836a1.214 1.214 0 0 0-1.565-.655c-.617.24-.917.924-.67 1.527.094.23.183.467.263.703zm-4.991 14.072c-.213.137-.432.27-.653.393a1.16 1.16 0 0 0-.092 1.979 1.23 1.23 0 0 0 1.295.057c.263-.148.524-.305.777-.468a1.158 1.158 0 0 0 .34-1.628 1.222 1.222 0 0 0-1.667-.333zm8.025-10.79c-.026-.649-.586-1.154-1.25-1.128-.664.025-1.182.572-1.156 1.22.01.248.013.5.007.747-.01.407.194.77.511.987.189.13.418.208.666.214.664.014 1.215-.5 1.23-1.149.007-.296.004-.596-.008-.891zm-3.231 7.698a1.223 1.223 0 0 0-1.686.236 12.32 12.32 0 0 1-.478.584 1.156 1.156 0 0 0 .224 1.723 1.225 1.225 0 0 0 1.61-.2c.196-.225.388-.46.57-.697.4-.52.291-1.255-.24-1.645zm1.77-4.247a1.21 1.21 0 0 0-1.509.77c-.076.237-.16.474-.251.707a1.16 1.16 0 0 0 .43 1.379c.08.055.17.102.266.137a1.213 1.213 0 0 0 1.553-.68c.108-.276.209-.559.3-.84a1.17 1.17 0 0 0-.79-1.473zm-15.729 9.186a12.652 12.652 0 0 1-3.088-.958c-.012-.006-.022-.013-.034-.018-.231-.106-.462-.22-.685-.338l-.003-.002c-.41-.22-.81-.464-1.198-.731C2.076 20.788.714 13.124 4.704 7.596A12.368 12.368 0 0 1 7.79 4.598l.044-.03c4.124-2.773 9.724-2.96 14.104-.11l-.94 1.327c-.262.369-.101.638.357.598l4.085-.357c.459-.04.733-.427.61-.86l-1.098-3.858c-.122-.432-.437-.484-.699-.115l-.942 1.33C20.098.417 16.242-.386 12.417.262a15.47 15.47 0 0 0-1.14.237l-.008.002-.043.011c-3.3.827-6.178 2.705-8.232 5.385a.987.987 0 0 0-.052.061 13.856 13.856 0 0 0-.52.733c-.013.019-.023.038-.034.056a14.225 14.225 0 0 0-2.373 8.545v.03c.014.295.038.594.07.888.002.019.007.037.01.056a14.389 14.389 0 0 0 4.318 8.753l.016.015.005.005a15.09 15.09 0 0 0 1.918 1.564 15.043 15.043 0 0 0 5.97 2.439c.654.114 1.28-.31 1.397-.95a1.178 1.178 0 0 0-.972-1.363z"/>
    <path
      d="M14.235 5.165a.963.963 0 0 0-.974.95v9.472l8.876 4.478a.988.988 0 0 0 1.312-.408.94.94 0 0 0-.418-1.28l-7.822-3.948V6.115a.962.962 0 0 0-.974-.95z"/>
  </g>
</svg>
<svg width="20" height="20" x="178" y="193" xmlns="http://www.w3.org/2000/svg">
  <path
    d="M10 20C4.486 20 0 15.514 0 10S4.486 0 10 0s10 4.486 10 10-4.486 10-10 10zm0-18.333c-4.596 0-8.333 3.737-8.333 8.333S5.404 18.333 10 18.333s8.333-3.737 8.333-8.333S14.596 1.667 10 1.667zm3.333 12.5a.83.83 0 0 1-.589-.244L9.411 10.59a.827.827 0 0 1-.18-.271.819.819 0 0 1-.064-.319V4.167a.834.834 0 1 1 1.666 0v5.489l3.09 3.088a.833.833 0 0 1-.59 1.423z"
    fill="#12CF7C" fill-rule="evenodd"/>
</svg>
<svg width="15" height="15" fill="#12ce7c" viewBox="0 0 47.971 47.971" x="213" y="228"
     xmlns="http://www.w3.org/2000/svg">
  <path
    d="M28.228 23.986L47.092 5.122a2.998 2.998 0 0 0 0-4.242 2.998 2.998 0 0 0-4.242 0L23.986 19.744 5.121.88a2.998 2.998 0 0 0-4.242 0 2.998 2.998 0 0 0 0 4.242l18.865 18.864L.879 42.85a2.998 2.998 0 1 0 4.242 4.241l18.865-18.864L42.85 47.091c.586.586 1.354.879 2.121.879s1.535-.293 2.121-.879a2.998 2.998 0 0 0 0-4.242L28.228 23.986z"/>
</svg>
<svg width="12" height="12" x="228" y="243" xmlns="http://www.w3.org/2000/svg">
  <path
    d="M7.01 5.596l3.883-3.884A1.002 1.002 0 0 0 10.9.292a1.001 1.001 0 0 0-1.42.006L5.595 4.18 1.711.298A1.001 1.001 0 0 0 .291.292c-.39.39-.389 1.025.006 1.42l3.884 3.884L.297 9.479a1.002 1.002 0 0 0-.005 1.42 1.001 1.001 0 0 0 1.42-.005L5.594 7.01l3.884 3.884a1.001 1.001 0 0 0 1.42.005c.39-.39.39-1.025-.006-1.42L7.01 5.596z"
    fill="#a0a0a0" fill-rule="evenodd"/>
</svg>
<svg width="12" height="12" x="252" y="267" xmlns="http://www.w3.org/2000/svg">
  <path
    d="M7.01 5.596l3.883-3.884A1.002 1.002 0 0 0 10.9.292a1.001 1.001 0 0 0-1.42.006L5.595 4.18 1.711.298A1.001 1.001 0 0 0 .291.292c-.39.39-.389 1.025.006 1.42l3.884 3.884L.297 9.479a1.002 1.002 0 0 0-.005 1.42 1.001 1.001 0 0 0 1.42-.005L5.594 7.01l3.884 3.884a1.001 1.001 0 0 0 1.42.005c.39-.39.39-1.025-.006-1.42L7.01 5.596z"
    fill="#F86D50" fill-rule="evenodd"/>
</svg>
<svg width="5" height="35" x="264" y="279" xmlns="http://www.w3.org/2000/svg">
  <path
    d="M2.5 5a2.5 2.5 0 1 1 0-5 2.5 2.5 0 0 1 0 5zm0 15a2.5 2.5 0 1 1 0-5 2.5 2.5 0 0 1 0 5zm0 15a2.5 2.5 0 1 1 0-5 2.5 2.5 0 0 1 0 5z"
    fill="#C4C4C4" fill-rule="evenodd"/>
</svg>
<svg width="8" height="5" x="277" y="319" xmlns="http://www.w3.org/2000/svg">
  <path
    d="M2.756 3.445c.687.859 1.8.86 2.488 0l1.512-1.89C7.443.696 7.113 0 6.002 0H1.998C.895 0 .556.695 1.244 1.555l1.512 1.89z"
    fill="#fff" fill-rule="evenodd"/>
</svg>
<svg width="12" height="7" x="285" y="324" xmlns="http://www.w3.org/2000/svg">
  <path
    d="M5.968 4.934L1.284.25a.75.75 0 0 0-1.06 1.06l5.195 5.196c.244.245.61.288.895.131a.76.76 0 0 0 .23-.158l5.196-5.196a.75.75 0 1 0-1.061-1.06L5.968 4.934z"
    fill="#12CF7C" fill-rule="evenodd"/>
</svg>
<svg width="16" height="16" x="297" y="331" xmlns="http://www.w3.org/2000/svg">
  <path
    d="M15.103 3.646l-1.394 1.393-2.837-2.837L9.796 3.28l2.837 2.837-6.959 6.958-2.836-2.837-1.077 1.076 2.837 2.837-.693.694-.013-.014a.549.549 0 0 1-.35.252l-2.646.59a.547.547 0 0 1-.509-.148.55.55 0 0 1-.148-.509l.59-2.644a.55.55 0 0 1 .252-.35l-.013-.014L12.266.808a.421.421 0 0 1 .595 0l2.242 2.243a.42.42 0 0 1 0 .595z"
    fill="#12CF7C"/>
</svg>
<svg viewBox="0 0 212.982 212.982" width="19" height="19" x="333" y="362" xmlns="http://www.w3.org/2000/svg">
  <path
    d="M131.804 106.491l75.936-75.936c6.99-6.99 6.99-18.323 0-25.312-6.99-6.99-18.322-6.99-25.312 0L106.491 81.18 30.554 5.242c-6.99-6.99-18.322-6.99-25.312 0-6.989 6.99-6.989 18.323 0 25.312l75.937 75.936-75.937 75.937c-6.989 6.99-6.989 18.323 0 25.312 6.99 6.99 18.322 6.99 25.312 0l75.937-75.937 75.937 75.937c6.989 6.99 18.322 6.99 25.312 0 6.99-6.99 6.99-18.322 0-25.312l-75.936-75.936z"
    fill="#FFF" fill-rule="evenodd" clip-rule="evenodd"/>
</svg>
<svg width="28" height="16" x="352" y="381" xmlns="http://www.w3.org/2000/svg">
  <path
    d="M13.53 14.891a1.265 1.265 0 0 1-.218-.175L.939 2.343A1.248 1.248 0 0 1 .938.575a1.247 1.247 0 0 1 1.769 0l11.6 11.6L25.814.669a1.247 1.247 0 0 1 1.769 0c.488.488.49 1.277-.001 1.768L15.209 14.81c-.46.46-1.185.49-1.679.082z"
    fill="#C4C4C4" fill-rule="evenodd"/>
</svg>
<svg width="16" height="2" x="541" y="555" xmlns="http://www.w3.org/2000/svg">
  <rect transform="rotate(90 34.5 4.3)" x="30.2" y="22.8" width="1.6" height="16" rx=".8" fill="#BEBEBE"
        fill-rule="evenodd"/>
</svg>
<svg width="16" height="2" x="557" y="557" xmlns="http://www.w3.org/2000/svg">
  <rect transform="rotate(90 34.5 4.3)" x="30.2" y="22.8" width="1.6" height="16" rx=".8" fill="#12cf7c"
        fill-rule="evenodd"/>
</svg>
<svg width="12" height="20" x="585" y="579" xmlns="http://www.w3.org/2000/svg">
  <path
    d="M11.373.593A1.913 1.913 0 0 0 9.972 0H1.998C1.458 0 .991.198.597.593a1.92 1.92 0 0 0-.592 1.404v15.976c0 .54.197 1.009.592 1.404.394.395.861.593 1.401.593h7.974c.54 0 1.007-.198 1.401-.593a1.92 1.92 0 0 0 .592-1.404V1.997a1.92 1.92 0 0 0-.592-1.404zM4.74 1.997h2.492c.166 0 .25.083.25.25 0 .166-.084.25-.25.25H4.74c-.166 0-.249-.084-.249-.25 0-.167.083-.25.25-.25zm2.126 16.857a1.2 1.2 0 0 1-.88.367 1.2 1.2 0 0 1-.88-.367 1.204 1.204 0 0 1-.366-.881c0-.343.122-.637.366-.882a1.2 1.2 0 0 1 .88-.367 1.2 1.2 0 0 1 .88.367c.244.245.366.539.366.882 0 .343-.122.637-.366.881zm3.605-3.377a.48.48 0 0 1-.148.35.479.479 0 0 1-.35.149H1.998a.479.479 0 0 1-.35-.148.48.48 0 0 1-.148-.351V4.493a.48.48 0 0 1 .148-.35.48.48 0 0 1 .35-.149h7.974c.135 0 .251.05.35.148a.48.48 0 0 1 .148.351v10.984z"
    fill="#fff" fill-rule="evenodd"/>
</svg>
<svg width="12" height="20" x="597" y="599" xmlns="http://www.w3.org/2000/svg">
  <path
    d="M11.373.593A1.913 1.913 0 0 0 9.972 0H1.998C1.458 0 .991.198.597.593a1.92 1.92 0 0 0-.592 1.404v15.976c0 .54.197 1.009.592 1.404.394.395.861.593 1.401.593h7.974c.54 0 1.007-.198 1.401-.593a1.92 1.92 0 0 0 .592-1.404V1.997a1.92 1.92 0 0 0-.592-1.404zM4.74 1.997h2.492c.166 0 .25.083.25.25 0 .166-.084.25-.25.25H4.74c-.166 0-.249-.084-.249-.25 0-.167.083-.25.25-.25zm2.126 16.857a1.2 1.2 0 0 1-.88.367 1.2 1.2 0 0 1-.88-.367 1.204 1.204 0 0 1-.366-.881c0-.343.122-.637.366-.882a1.2 1.2 0 0 1 .88-.367 1.2 1.2 0 0 1 .88.367c.244.245.366.539.366.882 0 .343-.122.637-.366.881zm3.605-3.377a.48.48 0 0 1-.148.35.479.479 0 0 1-.35.149H1.998a.479.479 0 0 1-.35-.148.48.48 0 0 1-.148-.351V4.493a.48.48 0 0 1 .148-.35.48.48 0 0 1 .35-.149h7.974c.135 0 .251.05.35.148a.48.48 0 0 1 .148.351v10.984z"
    fill="#FFE16C" fill-rule="evenodd"/>
</svg>
<svg width="22" height="18" x="609" y="619" xmlns="http://www.w3.org/2000/svg">
  <g fill="#F86D50">
    <path
      d="M3.414 10H15a1 1 0 0 0 0-2H3.414l1.293-1.293a1 1 0 1 0-1.414-1.414l-3 3a.991.991 0 0 0-.066.073c-.01.011-.018.023-.026.035l-.033.044-.026.043-.024.04-.021.045c-.007.015-.015.03-.02.044-.007.015-.012.03-.017.045l-.017.048-.011.045a.407.407 0 0 0-.013.05l-.008.052-.006.044A1.006 1.006 0 0 0 0 9c0 .033.002.065.005.098.001.015.004.029.006.044l.008.052.013.05.011.045.017.048.016.045.02.043.022.045.024.04.026.044.032.043.027.036c.02.024.04.047.063.07l.003.003 3 3a.997.997 0 0 0 1.414 0 1 1 0 0 0 0-1.414L3.414 10z"/>
    <path
      d="M20.977 0H8.023C7.458 0 7 .448 7 1v4c0 .552.458 1 1.023 1s1.022-.448 1.022-1V2h10.91v14H9.045v-3c0-.552-.457-1-1.022-1S7 12.448 7 13v4c0 .552.458 1 1.023 1h12.954c.565 0 1.023-.448 1.023-1V1c0-.552-.458-1-1.023-1z"/>
  </g>
</svg>
<svg width="16" height="16" x="647" y="653" xmlns="http://www.w3.org/2000/svg">
  <path
    d="M8.8 7.2V.793A.803.803 0 0 0 8 0c-.445 0-.8.355-.8.793V7.2H.793A.803.803 0 0 0 0 8c0 .445.355.8.793.8H7.2v6.407c0 .429.358.793.8.793.445 0 .8-.355.8-.793V8.8h6.407A.802.802 0 0 0 16 8c0-.445-.355-.8-.793-.8H8.8z"
    fill="#BEBEBE" fill-rule="evenodd"/>
</svg>
<svg width="16" height="16" x="663" y="669" xmlns="http://www.w3.org/2000/svg">
  <path
    d="M8.8 7.2V.793A.803.803 0 0 0 8 0c-.445 0-.8.355-.8.793V7.2H.793A.803.803 0 0 0 0 8c0 .445.355.8.793.8H7.2v6.407c0 .429.358.793.8.793.445 0 .8-.355.8-.793V8.8h6.407A.802.802 0 0 0 16 8c0-.445-.355-.8-.793-.8H8.8z"
    fill="#12cf7c" fill-rule="evenodd"/>
</svg>
<svg width="16" height="16" x="679" y="685" xmlns="http://www.w3.org/2000/svg">
  <path
    d="M7.966 8.458c-2.362 0-4.278-1.91-4.278-4.235C3.688 1.897 5.604 0 7.966 0c2.362 0 4.278 1.884 4.278 4.223 0 2.338-1.916 4.235-4.278 4.235zm7.454 6.614H.564A.557.557 0 0 1 0 14.513C0 11.577 2.415 9.2 5.367 9.2h5.25c2.965 0 5.367 2.39 5.367 5.314 0 .312-.25.559-.564.559z"
    fill="#FFF" fill-rule="evenodd"/>
</svg>
<svg width="23" height="19" x="711" y="717" xmlns="http://www.w3.org/2000/svg">
  <path
    d="M22.635 0H4.254a.726.726 0 0 0-.721.59C3.279 2.042 2.1 3.189.604 3.438A.713.713 0 0 0 0 4.136V14.83a.72.72 0 0 0 .607.702c1.493.246 2.672 1.393 2.928 2.847.059.341.366.59.721.59h18.379a.36.36 0 0 0 .365-.355v-.488a.359.359 0 0 0-.288-.346 1.23 1.23 0 0 1-.972-1.192c0-.58.415-1.066.973-1.191A.362.362 0 0 0 23 15.05v-.474a.359.359 0 0 0-.288-.346 1.23 1.23 0 0 1-.972-1.192c0-.58.415-1.066.973-1.191a.362.362 0 0 0 .287-.346v-.474a.359.359 0 0 0-.288-.346 1.23 1.23 0 0 1-.972-1.192c0-.58.415-1.066.973-1.191A.362.362 0 0 0 23 7.953v-.474a.359.359 0 0 0-.288-.346 1.23 1.23 0 0 1-.972-1.191c0-.58.415-1.067.973-1.192A.378.378 0 0 0 23 4.395V3.92a.359.359 0 0 0-.288-.346 1.23 1.23 0 0 1-.972-1.192c0-.58.415-1.066.973-1.191A.362.362 0 0 0 23 .846v-.49A.36.36 0 0 0 22.635 0zm-5.828 8.792l-1.91 1.634a.693.693 0 0 0-.227.702l.56 2.257c.151.61-.524 1.097-1.082.78l-2.095-1.197a.75.75 0 0 0-.74 0l-2.096 1.197c-.555.317-1.233-.17-1.082-.78l.56-2.257a.704.704 0 0 0-.226-.702L6.56 8.792c-.48-.413-.224-1.183.414-1.242l2.541-.232a.726.726 0 0 0 .607-.438l.887-2.094c.248-.588 1.104-.588 1.352 0l.887 2.094a.73.73 0 0 0 .607.438l2.54.232c.637.06.895.83.413 1.242z"
    fill="#12CE7C"/>
</svg>
<svg width="18" height="18" x="734" y="736" xmlns="http://www.w3.org/2000/svg">
  <g fill="none" fill-rule="evenodd">
    <path d="M9 18A9 9 0 1 0 9 0a9 9 0 0 0 0 18z" fill="#DADADA"/>
    <path
      d="M8.797 4.8c1.48 0 2.935.75 2.935 2.542 0 1.653-1.722 2.289-2.091 2.886-.278.444-.185 1.069-.948 1.069-.497 0-.74-.445-.74-.852 0-1.514 2.022-1.856 2.022-3.103 0-.686-.415-1.093-1.109-1.093-1.479 0-.901 1.678-2.022 1.678-.404 0-.751-.267-.751-.775 0-1.247 1.294-2.352 2.704-2.352zm-.058 7.322c.52 0 .948.47.948 1.043s-.428 1.042-.948 1.042-.948-.469-.948-1.042c0-.573.428-1.043.948-1.043z"
      fill="#88919D"/>
  </g>
</svg>
<svg width="19" height="19" x="752" y="754" xmlns="http://www.w3.org/2000/svg">
  <g fill="#88919D">
    <path
      d="M18.153 7.665a58.15 58.15 0 0 0-1.09-.152.108.108 0 0 1-.092-.077 7.711 7.711 0 0 0-.728-1.759.108.108 0 0 1 .01-.12c.225-.292.448-.588.663-.878.29-.393.248-.95-.098-1.296l-1.201-1.201a1.002 1.002 0 0 0-1.296-.098c-.29.215-.586.438-.879.663a.108.108 0 0 1-.12.01 7.712 7.712 0 0 0-1.758-.728.108.108 0 0 1-.077-.092 65.17 65.17 0 0 0-.152-1.09A1.002 1.002 0 0 0 10.349 0H8.651c-.49 0-.914.364-.986.847a65.17 65.17 0 0 0-.152 1.09.108.108 0 0 1-.077.092 7.714 7.714 0 0 0-1.758.728.109.109 0 0 1-.12-.01 58.484 58.484 0 0 0-.88-.663 1.002 1.002 0 0 0-1.295.098L2.182 3.383a1.002 1.002 0 0 0-.098 1.296c.215.29.439.587.663.879a.108.108 0 0 1 .01.12 7.712 7.712 0 0 0-.728 1.758.108.108 0 0 1-.092.077c-.366.047-.732.099-1.09.152A1.002 1.002 0 0 0 0 8.651v1.698c0 .49.364.914.847.986.357.053.724.105 1.09.152.045.006.08.036.092.077.169.613.414 1.205.728 1.759a.108.108 0 0 1-.01.12c-.225.292-.448.588-.663.878-.29.393-.248.95.098 1.296l1.201 1.201c.346.346.903.388 1.296.098.29-.215.586-.438.879-.663a.108.108 0 0 1 .12-.01c.553.314 1.145.56 1.758.728a.11.11 0 0 1 .077.092c.048.366.099.733.152 1.09.072.483.496.847.986.847h1.698c.49 0 .914-.364.986-.847.053-.357.104-.724.152-1.09a.108.108 0 0 1 .077-.092 7.715 7.715 0 0 0 1.758-.729.109.109 0 0 1 .12.01c.293.226.59.45.88.664.392.29.949.248 1.295-.098l1.201-1.201c.346-.346.388-.903.098-1.296-.215-.29-.438-.586-.663-.879a.108.108 0 0 1-.01-.12c.314-.553.56-1.145.728-1.758a.108.108 0 0 1 .092-.077 65.17 65.17 0 0 0 1.09-.152c.483-.073.847-.496.847-.986V8.651c0-.49-.364-.914-.847-.986zm-.547 2.634a.102.102 0 0 1-.085.102c-.332.05-.672.097-1.01.141a.935.935 0 0 0-.784.679 6.425 6.425 0 0 1-.607 1.464.935.935 0 0 0 .074 1.035c.208.27.415.545.615.814a.104.104 0 0 1-.012.133l-1.13 1.13a.103.103 0 0 1-.133.012 54.679 54.679 0 0 1-.814-.615.935.935 0 0 0-1.035-.074 6.426 6.426 0 0 1-1.464.607.935.935 0 0 0-.679.783c-.044.34-.091.68-.141 1.01a.102.102 0 0 1-.102.086H8.701a.102.102 0 0 1-.102-.085c-.05-.33-.097-.67-.141-1.01a.935.935 0 0 0-.679-.784 6.423 6.423 0 0 1-1.464-.607.932.932 0 0 0-1.035.074c-.271.209-.546.416-.814.615a.103.103 0 0 1-.133-.012l-1.13-1.13a.102.102 0 0 1-.012-.132c.2-.27.406-.544.615-.815.231-.3.26-.707.074-1.034a6.424 6.424 0 0 1-.607-1.465.935.935 0 0 0-.783-.678c-.34-.045-.68-.092-1.01-.142a.103.103 0 0 1-.086-.101V8.7a.1.1 0 0 1 .085-.1c.332-.05.672-.098 1.01-.142a.935.935 0 0 0 .784-.679c.14-.51.345-1.003.607-1.464a.935.935 0 0 0-.074-1.034 60.082 60.082 0 0 1-.615-.815.103.103 0 0 1 .012-.133l1.13-1.13a.103.103 0 0 1 .133-.012c.268.2.543.406.814.615.3.231.707.26 1.035.074a6.424 6.424 0 0 1 1.464-.607c.363-.1.63-.407.679-.783.044-.34.091-.68.141-1.01a.103.103 0 0 1 .102-.086h1.598c.051 0 .095.037.102.085.05.331.097.67.141 1.01a.935.935 0 0 0 .679.784c.51.14 1.003.345 1.464.607a.935.935 0 0 0 1.035-.074c.271-.209.546-.416.814-.615a.102.102 0 0 1 .133.012l1.13 1.13a.104.104 0 0 1 .012.133c-.2.27-.406.543-.615.815a.935.935 0 0 0-.074 1.034c.262.461.466.954.607 1.464.1.363.408.63.783.679.34.044.68.091 1.01.141a.103.103 0 0 1 .086.102v1.598z"/>
    <path
      d="M9.5 5.376A4.129 4.129 0 0 0 5.376 9.5 4.129 4.129 0 0 0 9.5 13.624 4.129 4.129 0 0 0 13.624 9.5 4.129 4.129 0 0 0 9.5 5.376zm0 7.005A2.885 2.885 0 0 1 6.619 9.5 2.885 2.885 0 0 1 9.5 6.619 2.885 2.885 0 0 1 12.381 9.5 2.885 2.885 0 0 1 9.5 12.381z"/>
  </g>
</svg>
<svg width="22" height="16" x="783" y="784" xmlns="http://www.w3.org/2000/svg">
  <path
    d="M7.765 11.095L3.337 6.667a1.693 1.693 0 0 0-2.402-.003A1.694 1.694 0 0 0 .94 9.066l5.514 5.514c.362.362.84.527 1.306.5.47.032.95-.131 1.31-.491L20.693 2.965c.66-.66.662-1.727-.005-2.394a1.69 1.69 0 0 0-2.394-.004L7.765 11.095z"
    fill="#FFF" fill-rule="evenodd"/>
</svg>
<svg width="12" height="7" x="805" y="800" xmlns="http://www.w3.org/2000/svg">
  <path
    d="M5.711 4.722L1.23.239A.719.719 0 0 0 .214 1.254l4.972 4.973a.721.721 0 0 0 .857.125.728.728 0 0 0 .22-.151l4.972-4.973A.719.719 0 1 0 10.22.213L5.711 4.722z"
    fill="#12CF7C" fill-rule="evenodd"/>
</svg>
<svg width="162" height="164" x="843" y="822" xmlns="http://www.w3.org/2000/svg">
  <defs>
    <path
      d="M80 160c44.183 0 80-35.817 80-80S124.183 0 80 0 0 35.817 0 80c0 21.442 8.436 40.914 22.169 55.277 3.383 3.54 0 24.723 0 24.723s18.655-10.082 22.762-8.076C55.521 157.097 67.421 160 80 160z"
      id="g"/>
  </defs>
  <use stroke="#12CE7C" stroke-width="2" fill="#FFF" xlink:href="#g" transform="translate(1 1.392)"
       fill-rule="evenodd"/>
</svg>
<svg width="25" height="14" x="1030" y="1000" xmlns="http://www.w3.org/2000/svg">
  <path
    d="M0 .985A.98.98 0 0 1 .98 0h23.04a.98.98 0 0 1 .98.985.98.98 0 0 1-.98.985H.98A.98.98 0 0 1 0 .985zm0 5.912a.98.98 0 0 1 .98-.986h23.04a.98.98 0 0 1 .98.986.98.98 0 0 1-.98.985H.98A.98.98 0 0 1 0 6.897zm0 5.91a.98.98 0 0 1 .98-.984h23.04a.98.98 0 0 1 .98.985.98.98 0 0 1-.98.985H.98a.98.98 0 0 1-.98-.985z"
    fill="#FFF" fill-rule="evenodd"/>
</svg>
<svg width="112" height="85" x="1055" y="1014" xmlns="http://www.w3.org/2000/svg">
  <defs>
    <rect id="h" width="112" height="85" rx="5"/>
  </defs>
  <g fill="none" fill-rule="evenodd">
    <use fill="#FFF" xlink:href="#h"/>
    <rect x="1" y="1" width="110" height="83" rx="5"/>
  </g>
</svg>
<svg width="19" height="18" x="1167" y="1099" xmlns="http://www.w3.org/2000/svg">
  <path
    d="M.984 8.031h14.585L9.285 1.758A1.02 1.02 0 1 1 10.731.314l7.952 7.939c.107.107.18.232.23.365a.977.977 0 0 1 .087.398.965.965 0 0 1-.088.398 1.01 1.01 0 0 1-.229.362l-7.952 7.939c-.4.399-1.047.399-1.446 0a1.02 1.02 0 0 1 0-1.443L15.567 10H.984a.985.985 0 0 1 0-1.969z"
    fill="#c2c2c2" fill-rule="evenodd"/>
</svg>
<svg width="19" height="18" x="1186" y="1117" xmlns="http://www.w3.org/2000/svg">
  <path
    d="M.984 8.031h14.585L9.285 1.758A1.02 1.02 0 1 1 10.731.314l7.952 7.939c.107.107.18.232.23.365a.977.977 0 0 1 .087.398.965.965 0 0 1-.088.398 1.01 1.01 0 0 1-.229.362l-7.952 7.939c-.4.399-1.047.399-1.446 0a1.02 1.02 0 0 1 0-1.443L15.567 10H.984a.985.985 0 0 1 0-1.969z"
    fill="#12CF7C" fill-rule="evenodd"/>
</svg>
<svg width="23" height="20" x="1205" y="1135" xmlns="http://www.w3.org/2000/svg">
  <path
    d="M10.716.447A.834.834 0 0 1 11.46 0c.316 0 .605.174.744.447l2.67 5.232c.12.236.354.4.625.438l5.97.84a.822.822 0 0 1 .67.545c.097.29.015.61-.21.823l-4.32 4.072a.787.787 0 0 0-.239.71l1.02 5.75a.792.792 0 0 1-.331.786.857.857 0 0 1-.875.061l-5.339-2.715a.855.855 0 0 0-.772 0l-5.34 2.715a.855.855 0 0 1-.874-.061.79.79 0 0 1-.33-.785l1.019-5.75a.786.786 0 0 0-.24-.71L.99 8.324a.784.784 0 0 1-.21-.823.823.823 0 0 1 .67-.546l5.97-.839a.828.828 0 0 0 .625-.439l2.67-5.23z"
    fill="#DADADA" fill-rule="evenodd"/>
</svg>
<svg width="23" height="20" x="1228" y="1155" xmlns="http://www.w3.org/2000/svg">
  <path
    d="M10.716.447A.834.834 0 0 1 11.46 0c.316 0 .605.174.744.447l2.67 5.232c.12.236.354.4.625.438l5.97.84a.822.822 0 0 1 .67.545c.097.29.015.61-.21.823l-4.32 4.072a.787.787 0 0 0-.239.71l1.02 5.75a.792.792 0 0 1-.331.786.857.857 0 0 1-.875.061l-5.339-2.715a.855.855 0 0 0-.772 0l-5.34 2.715a.855.855 0 0 1-.874-.061.79.79 0 0 1-.33-.785l1.019-5.75a.786.786 0 0 0-.24-.71L.99 8.324a.784.784 0 0 1-.21-.823.823.823 0 0 1 .67-.546l5.97-.839a.828.828 0 0 0 .625-.439l2.67-5.23z"
    fill="#FFE06C" fill-rule="evenodd"/>
</svg>
</svg>
