<svg width="12" height="11" x="771" y="773" xmlns="http://www.w3.org/2000/svg" fill="#343434" fill-rule="evenodd">
  <path
    d="M5.507.256a.461.461 0 0 1 .411-.244.46.46 0 0 1 .41.244l1.474 2.86a.459.459 0 0 0 .345.239l3.296.458c.172.024.315.14.37.299a.426.426 0 0 1-.117.45L9.312 6.786a.428.428 0 0 0-.132.388l.563 3.142a.43.43 0 0 1-.183.43.477.477 0 0 1-.482.033L6.13 9.296a.476.476 0 0 0-.426 0L2.757 10.78a.476.476 0 0 1-.483-.033.43.43 0 0 1-.182-.43l.563-3.142a.427.427 0 0 0-.132-.388L.138 4.56a.426.426 0 0 1-.116-.45.453.453 0 0 1 .37-.298l3.296-.458c.15-.02.278-.11.345-.24L5.507.256z"/>
</svg>
