<svg width="26" height="15" x="817" y="807" xmlns="http://www.w3.org/2000/svg" fill="#FFF" fill-rule="evenodd">
  <path
    d="M25.862 13.526a1.804 1.804 0 0 0-.088-.171c-.451-.82-1.313-1.827-2.586-3.02l-.026-.028-.014-.014-.014-.013h-.013c-.578-.556-.943-.93-1.097-1.121-.28-.365-.343-.734-.19-1.107.109-.283.515-.88 1.219-1.79.37-.484.663-.87.88-1.162 1.561-2.096 2.238-3.435 2.03-4.018l-.08-.137c-.054-.082-.194-.157-.42-.225-.226-.069-.514-.08-.866-.034l-3.899.027a.501.501 0 0 0-.27.007l-.177.04-.068.035-.053.041a.604.604 0 0 0-.15.143.94.94 0 0 0-.134.24 22.413 22.413 0 0 1-1.45 3.075c-.333.565-.64 1.054-.92 1.469-.28.414-.514.72-.704.916-.19.196-.36.352-.514.471-.154.119-.27.169-.352.15a9.84 9.84 0 0 1-.23-.054.906.906 0 0 1-.305-.335 1.51 1.51 0 0 1-.155-.533 5.932 5.932 0 0 1-.048-.554c-.004-.154-.002-.373.007-.656.01-.282.014-.474.014-.574 0-.346.006-.722.02-1.127.013-.406.025-.727.034-.964.009-.237.013-.487.013-.752a3.22 3.22 0 0 0-.047-.621 2.142 2.142 0 0 0-.142-.438.735.735 0 0 0-.277-.328 1.556 1.556 0 0 0-.454-.184C13.858.07 13.25.01 12.508.002 10.83-.016 9.751.093 9.273.33c-.19.1-.361.237-.514.41-.163.2-.185.31-.068.328.541.082.925.278 1.15.588l.082.164c.063.118.126.328.19.628.062.301.103.634.121.998a10.74 10.74 0 0 1 0 1.708c-.045.474-.088.843-.128 1.107a2.245 2.245 0 0 1-.183.643 2.718 2.718 0 0 1-.163.3.234.234 0 0 1-.067.069c-.118.045-.24.068-.366.068s-.28-.064-.46-.191a3.26 3.26 0 0 1-.562-.527 7.034 7.034 0 0 1-.657-.936c-.243-.4-.496-.874-.758-1.421l-.216-.397a35.88 35.88 0 0 1-.555-1.113 22.05 22.05 0 0 1-.623-1.415.9.9 0 0 0-.325-.437L5.104.863a.924.924 0 0 0-.217-.117c-.1-.04-.203-.07-.311-.088L.866.685c-.377 0-.636.087-.77.26l-.054.082A.446.446 0 0 0 0 1.245c0 .1.027.224.081.37a45.296 45.296 0 0 0 1.767 3.717c.636 1.193 1.189 2.155 1.658 2.883.47.73.948 1.417 1.435 2.064.487.647.81 1.062.968 1.244.158.182.282.319.372.41l.339.328c.216.219.534.48.954.786.42.305.884.606 1.394.902.51.296 1.104.537 1.78.724a6.1 6.1 0 0 0 1.977.226h1.557c.315-.028.555-.128.717-.3l.054-.07a.91.91 0 0 0 .102-.252c.031-.114.047-.24.047-.376-.01-.392.02-.745.088-1.059.067-.314.144-.551.23-.71a1.746 1.746 0 0 1 .522-.602.88.88 0 0 1 .108-.048c.216-.073.471-.002.765.212.293.214.568.479.825.793.258.315.567.667.928 1.06.36.391.677.682.947.874l.27.164c.182.11.416.21.705.3.288.092.541.115.758.069l3.465-.055c.343 0 .61-.057.799-.17.19-.114.302-.24.338-.376.037-.137.039-.292.007-.465a1.728 1.728 0 0 0-.095-.362z"
    />
</svg>
